<?xml version="1.0" encoding="UTF-8"?>
<svg id="Capa_1" data-name="Capa 1" xmlns="http://www.w3.org/2000/svg" viewBox="0 0 151.02 151">
  <path d="M151.02,74.88C151.02,33.53,117.5,0,76.14,0S1.26,33.53,1.26,74.88c0,37.38,27.38,68.36,63.18,73.97v-52.33h-19.01v-21.65h19.01v-16.5c0-18.77,11.18-29.13,28.28-29.13,8.19,0,16.76,1.46,16.76,1.46v18.43h-9.44c-9.3,0-12.2,5.77-12.2,11.69v14.05h20.77l-3.32,21.65h-17.45v52.33c35.8-5.62,63.18-36.6,63.18-73.97Z" style="fill: #1031a3;"/>
  <path d="M105.29,96.53l3.32-21.65h-20.77v-14.05c0-5.92,2.9-11.69,12.2-11.69h9.44V30.71s-8.57-1.46-16.76-1.46c-17.1,0-28.28,10.37-28.28,29.13v16.5h-19.01v21.65h19.01v52.33c3.81,.6,7.72,.91,11.7,.91s7.89-.31,11.7-.91v-52.33h17.45Z" style="fill: #fff;"/>
</svg>