<?xml version="1.0" encoding="UTF-8"?>
<svg id="Capa_1" data-name="Capa 1" xmlns="http://www.w3.org/2000/svg" viewBox="0 0 151.02 151">
  <circle cx="76" cy="75" r="75" style="fill: #1031a3;"/>
  <g>
    <path d="M76,36.29c12.61,0,14.1,.05,19.08,.28,4.6,.21,7.1,.98,8.77,1.63,2.2,.86,3.78,1.88,5.43,3.53,1.65,1.65,2.68,3.23,3.53,5.43,.65,1.66,1.42,4.16,1.63,8.77,.23,4.98,.28,6.47,.28,19.08s-.05,14.1-.28,19.08c-.21,4.6-.98,7.1-1.63,8.77-.86,2.2-1.88,3.78-3.53,5.43-1.65,1.65-3.23,2.68-5.43,3.53-1.66,.65-4.16,1.42-8.77,1.63-4.98,.23-6.47,.28-19.08,.28s-14.1-.05-19.08-.28c-4.6-.21-7.1-.98-8.77-1.63-2.2-.86-3.78-1.88-5.43-3.53-1.65-1.65-2.68-3.23-3.53-5.43-.65-1.66-1.42-4.16-1.63-8.77-.23-4.98-.28-6.47-.28-19.08s.05-14.1,.28-19.08c.21-4.6,.98-7.1,1.63-8.77,.86-2.2,1.88-3.78,3.53-5.43,1.65-1.65,3.23-2.68,5.43-3.53,1.66-.65,4.16-1.42,8.77-1.63,4.98-.23,6.47-.28,19.08-.28m0-8.51c-12.82,0-14.43,.05-19.47,.28-5.03,.23-8.46,1.03-11.46,2.2-3.11,1.21-5.74,2.82-8.36,5.45-2.63,2.63-4.24,5.26-5.45,8.36-1.17,3-1.97,6.44-2.19,11.46-.23,5.04-.28,6.64-.28,19.47s.05,14.43,.28,19.47c.23,5.03,1.03,8.46,2.19,11.46,1.21,3.11,2.82,5.74,5.45,8.36,2.63,2.63,5.26,4.24,8.36,5.45,3,1.17,6.44,1.97,11.46,2.19,5.04,.23,6.64,.28,19.47,.28s14.43-.05,19.47-.28c5.03-.23,8.46-1.03,11.46-2.19,3.11-1.21,5.74-2.82,8.36-5.45,2.63-2.63,4.24-5.26,5.45-8.36,1.17-3,1.97-6.44,2.19-11.46,.23-5.04,.28-6.64,.28-19.47s-.05-14.43-.28-19.47c-.23-5.03-1.03-8.46-2.19-11.46-1.21-3.11-2.82-5.74-5.45-8.36-2.63-2.63-5.26-4.24-8.36-5.45-3-1.17-6.44-1.97-11.46-2.2-5.04-.23-6.64-.28-19.47-.28h0Z" style="fill: #fff;"/>
    <path d="M76,50.75c-13.39,0-24.25,10.86-24.25,24.25s10.86,24.25,24.25,24.25,24.25-10.86,24.25-24.25-10.86-24.25-24.25-24.25Zm0,39.99c-8.69,0-15.74-7.05-15.74-15.74s7.05-15.74,15.74-15.74,15.74,7.05,15.74,15.74-7.05,15.74-15.74,15.74Z" style="fill: #fff;"/>
    <circle cx="101.21" cy="49.79" r="5.67" style="fill: #fff;"/>
  </g>
</svg>