<?xml version="1.0" encoding="UTF-8"?>
<svg id="Capa_1" data-name="Capa 1" xmlns="http://www.w3.org/2000/svg" viewBox="0 0 151.02 151">
  <circle cx="75.5" cy="74.5" r="74.5" style="fill: #1031a3;"/>
  <g>
    <path d="M81.26,64.34c1.22-1.37,2.23-2.77,3.49-3.96,3.86-3.64,8.43-5.48,13.77-5.43,2.93,.02,5.83,.24,8.66,1.05,6.47,1.87,10.22,6.32,12.02,12.64,1.34,4.74,1.59,9.6,1.6,14.48,.02,10.29-.03,20.58,0,30.87,0,.96-.27,1.22-1.22,1.21-5.3-.04-10.6-.05-15.91,0-.93,0-1.13-.28-1.13-1.16,.03-9.79,.04-19.59,0-29.38,0-2.45-.16-4.91-.85-7.29-1.27-4.4-4.41-6.63-9.02-6.39-6.29,.33-9.56,3.45-10.36,9.84-.19,1.53-.28,3.05-.28,4.59,0,9.52,0,19.05,.03,28.57,0,.95-.23,1.23-1.2,1.22-5.34-.05-10.68-.04-16.02,0-.86,0-1.1-.22-1.1-1.09,.02-18.86,.02-37.71,0-56.57,0-.93,.3-1.15,1.19-1.14,5.07,.04,10.14,.04,15.21,0,.93,0,1.17,.29,1.15,1.18-.05,2.25-.02,4.51-.02,6.76Z" style="fill: #fefefe;"/>
    <path d="M52.22,85.88c0,9.33-.02,18.66,.02,27.98,0,1.04-.25,1.35-1.33,1.34-5.3-.06-10.6-.05-15.9,0-.85,0-1.11-.21-1.1-1.08,.03-18.89,.02-37.77,0-56.66,0-.78,.19-1.06,1.02-1.06,5.38,.03,10.75,.05,16.13,0,1.03,0,1.17,.39,1.17,1.28-.03,9.4-.02,18.81-.02,28.21Z" style="fill: #fefefe;"/>
    <path d="M53.68,37.68c0,5.86-4.75,10.63-10.59,10.63-5.77,0-10.56-4.77-10.58-10.54-.02-5.83,4.77-10.63,10.6-10.62,5.79,0,10.56,4.76,10.57,10.53Z" style="fill: #fefefe;"/>
  </g>
</svg>