<svg xmlns="http://www.w3.org/2000/svg" viewBox="0 0 1034.13 311">
  <g>
    <g>
      <path d="M238.73,281.32q.78-4.38-4.31-6.71l-7.12-2.84q-12.39-5.52-11.76-15.22a14,14,0,0,1,3-8,17.69,17.69,0,0,1,7.56-5.43,26.65,26.65,0,0,1,10.51-1.9q7.77.15,12.57,4.62t4.72,12H243.08a7.68,7.68,0,0,0-1.6-5.67c-1.19-1.35-3-2.06-5.55-2.1a11.25,11.25,0,0,0-6.42,1.67,6.89,6.89,0,0,0-3.24,4.81q-.71,4,5.38,6.38l4.87,1.85,2.8,1.29q10.88,5.37,10.18,15.11a14.6,14.6,0,0,1-3.05,8.2,17,17,0,0,1-7.37,5.29,26.31,26.31,0,0,1-10.27,1.74,23.1,23.1,0,0,1-10.17-2.4,15.75,15.75,0,0,1-6.79-6.45,16.69,16.69,0,0,1-2-8.85l10.8,0q-.51,8.73,8.59,8.88a11.26,11.26,0,0,0,6.49-1.73A6.75,6.75,0,0,0,238.73,281.32Z" transform="translate(-2.83)" style="fill: #fff"/>
      <path d="M276.74,255a15.92,15.92,0,0,1,9.09,2.71,15.2,15.2,0,0,1,5.6,7.26,22.42,22.42,0,0,1,1.27,10.27q-.84,9.51-6.61,15.39a18.69,18.69,0,0,1-14.25,5.73,16,16,0,0,1-9-2.67,15.18,15.18,0,0,1-5.6-7.21A21.82,21.82,0,0,1,256,276.34q1-9.87,6.71-15.7A18.29,18.29,0,0,1,276.74,255Zm-10.51,25.08a9.3,9.3,0,0,0,1.66,5.58,5.56,5.56,0,0,0,4.46,2.11q4.8.15,7.52-4.4t2.55-11.94a10,10,0,0,0-1.72-5.65,5.38,5.38,0,0,0-4.48-2.19q-4.64-.15-7.42,4.36T266.23,280.12Z" transform="translate(-2.83)" style="fill: #fff"/>
      <path d="M298.49,295.66l5.57-32.11h-5.75l1.36-7.78,5.75,0,.52-4a15,15,0,0,1,16-13.56,34.14,34.14,0,0,1,5.64.77l-.92,8.26a12.62,12.62,0,0,0-3.06-.44,7.62,7.62,0,0,0-4.74,1.4,6.44,6.44,0,0,0-2.45,4.34l-.55,3.25h7.7l-1.36,7.78h-7.67L309,295.66Z" transform="translate(-2.83)" style="fill: #fff"/>
      <path d="M343.4,246l-1.74,9.8h6.64l-1.36,7.82H340.3l-3.39,20a5.13,5.13,0,0,0,.29,2.88c.35.66,1.18,1,2.51,1.07.39,0,1.45,0,3.17-.19l-.74,8.15a17.54,17.54,0,0,1-6,.85q-5.13-.07-7.63-3.21t-2.07-8.48l3.43-21.05h-5.64l1.37-7.82h5.64L333,246Z" transform="translate(-2.83)" style="fill: #fff"/>
      <path d="M383.43,281.14l9.48-25.37h10.36l-16.78,39.89h-8.7l-3-25-11.65,25h-8.7l-2.95-39.89h9.74l.62,25.11,11.4-25.11h7.52Z" transform="translate(-2.83)" style="fill: #fff"/>
      <path d="M424.69,295.66a10.68,10.68,0,0,1-.41-3.61,13.5,13.5,0,0,1-10.17,4.35,12.25,12.25,0,0,1-8.68-3.41,10.3,10.3,0,0,1-3.23-8.24,11.93,11.93,0,0,1,5.47-10q5.22-3.48,14-3.48l4.86.07.52-2.4a8.34,8.34,0,0,0,.11-2.32,4,4,0,0,0-1.31-2.71,4.49,4.49,0,0,0-3-1,6.34,6.34,0,0,0-4.13,1.2,5.79,5.79,0,0,0-2.17,3.66l-10.44,0a11.62,11.62,0,0,1,5.26-9.27A20.35,20.35,0,0,1,423.73,255q6.78.14,10.62,4a11.86,11.86,0,0,1,3.21,10l-3.06,19.1-.19,2.36a11.29,11.29,0,0,0,.63,4.42l0,.7Zm-8-7.33q4.5.15,7.85-3.91l1.29-6.9-3.61,0c-3.84.1-6.6,1.26-8.3,3.5a6.17,6.17,0,0,0-1.14,3,3.53,3.53,0,0,0,.83,3.15A4.25,4.25,0,0,0,416.69,288.33Z" transform="translate(-2.83)" style="fill: #fff"/>
      <path d="M468.56,265.76a21.87,21.87,0,0,0-3.5-.36,10.08,10.08,0,0,0-8.81,4.16l-4.61,26.1h-10.4l6.93-39.89,9.77,0-1,4.86q3.76-5.64,9.29-5.64a14.92,14.92,0,0,1,3.62.52Z" transform="translate(-2.83)" style="fill: #fff"/>
      <path d="M486.59,296.4a17.33,17.33,0,0,1-9.27-2.56,15.63,15.63,0,0,1-6-6.93,19.37,19.37,0,0,1-1.55-9.72l.11-1.47A25.78,25.78,0,0,1,473.24,265a20.58,20.58,0,0,1,7.3-7.51,18.12,18.12,0,0,1,9.88-2.48c5.14.09,9,2,11.67,5.66s3.64,8.35,3,14l-.59,4.54H480.06a8.54,8.54,0,0,0,1.88,6.19,7.2,7.2,0,0,0,5.53,2.4,12.77,12.77,0,0,0,10-4.42l4.75,5.9a14.82,14.82,0,0,1-6.49,5.29A21.25,21.25,0,0,1,486.59,296.4Zm3.32-32.77a7.4,7.4,0,0,0-5.11,1.8c-1.49,1.26-2.82,3.43-4,6.53h14.3l.23-1a9.76,9.76,0,0,0,0-2.8,5.31,5.31,0,0,0-1.8-3.34A5.64,5.64,0,0,0,489.91,263.63Z" transform="translate(-2.83)" style="fill: #fff"/>
      <path d="M564.53,275.83A32.78,32.78,0,0,1,561.24,287a17.94,17.94,0,0,1-6.23,7.23,14.46,14.46,0,0,1-8.25,2.25,11.53,11.53,0,0,1-9.15-4.32L534,311H523.57l9.54-55.23,9.59,0-.7,4A12.75,12.75,0,0,1,552.18,255a11.29,11.29,0,0,1,9.1,4.25q3.24,4.11,3.47,11.16A44.24,44.24,0,0,1,564.53,275.83Zm-10.33-.76.22-3.54a9.87,9.87,0,0,0-1.3-5.69,4.72,4.72,0,0,0-4-2.18,8.59,8.59,0,0,0-7.49,3.84l-3,16.47q1.36,3.73,5.86,3.88a7.51,7.51,0,0,0,6.27-2.92Q553.24,281.9,554.2,275.07Z" transform="translate(-2.83)" style="fill: #fff"/>
      <path d="M590.89,295.66a10.68,10.68,0,0,1-.41-3.61,13.5,13.5,0,0,1-10.18,4.35,12.26,12.26,0,0,1-8.68-3.41,10.29,10.29,0,0,1-3.22-8.24,11.91,11.91,0,0,1,5.47-10q5.22-3.48,14-3.48l4.87.07.52-2.4a8.74,8.74,0,0,0,.11-2.32,4,4,0,0,0-1.31-2.71,4.49,4.49,0,0,0-3-1,6.34,6.34,0,0,0-4.13,1.2,5.8,5.8,0,0,0-2.18,3.66l-10.43,0a11.57,11.57,0,0,1,5.26-9.27A20.35,20.35,0,0,1,589.93,255q6.78.14,10.61,4a11.8,11.8,0,0,1,3.21,10l-3.06,19.1-.18,2.36a11.49,11.49,0,0,0,.62,4.42l0,.7Zm-8-7.33q4.49.15,7.85-3.91l1.29-6.9-3.61,0c-3.84.1-6.6,1.26-8.3,3.5a6.17,6.17,0,0,0-1.14,3,3.53,3.53,0,0,0,.83,3.15A4.23,4.23,0,0,0,582.89,288.33Z" transform="translate(-2.83)" style="fill: #fff"/>
      <path d="M634.76,265.76a22.09,22.09,0,0,0-3.5-.36,10.1,10.1,0,0,0-8.82,4.16l-4.6,26.1h-10.4l6.93-39.89,9.77,0-1,4.86q3.77-5.64,9.29-5.64a14.84,14.84,0,0,1,3.61.52Z" transform="translate(-2.83)" style="fill: #fff"/>
      <path d="M656.51,295.66a10.68,10.68,0,0,1-.41-3.61,13.48,13.48,0,0,1-10.17,4.35,12.25,12.25,0,0,1-8.68-3.41,10.3,10.3,0,0,1-3.23-8.24,11.93,11.93,0,0,1,5.47-10q5.22-3.48,14-3.48l4.86.07.52-2.4a8.34,8.34,0,0,0,.11-2.32,4,4,0,0,0-1.31-2.71,4.49,4.49,0,0,0-3-1,6.34,6.34,0,0,0-4.13,1.2,5.79,5.79,0,0,0-2.17,3.66l-10.43,0a11.58,11.58,0,0,1,5.25-9.27A20.35,20.35,0,0,1,655.55,255q6.78.14,10.62,4a11.86,11.86,0,0,1,3.21,10l-3.06,19.1-.19,2.36a11.29,11.29,0,0,0,.63,4.42l0,.7Zm-8-7.33q4.5.15,7.85-3.91l1.29-6.9-3.61,0c-3.84.1-6.6,1.26-8.3,3.5a6.17,6.17,0,0,0-1.14,3,3.53,3.53,0,0,0,.83,3.15A4.25,4.25,0,0,0,648.51,288.33Z" transform="translate(-2.83)" style="fill: #fff"/>
      <path d="M710.63,296.4a17.33,17.33,0,0,1-9.27-2.56,15.63,15.63,0,0,1-6-6.93,19.37,19.37,0,0,1-1.55-9.72l.11-1.47A25.78,25.78,0,0,1,697.28,265a20.58,20.58,0,0,1,7.3-7.51,18.12,18.12,0,0,1,9.88-2.48c5.14.09,9,2,11.67,5.66s3.65,8.35,3,14l-.59,4.54H704.1a8.58,8.58,0,0,0,1.88,6.19,7.2,7.2,0,0,0,5.53,2.4,12.77,12.77,0,0,0,10-4.42l4.75,5.9a14.79,14.79,0,0,1-6.48,5.29A21.33,21.33,0,0,1,710.63,296.4ZM714,263.63a7.4,7.4,0,0,0-5.11,1.8c-1.48,1.26-2.82,3.43-4,6.53h14.31l.22-1a9.42,9.42,0,0,0,0-2.8,5.31,5.31,0,0,0-1.8-3.34A5.64,5.64,0,0,0,714,263.63Z" transform="translate(-2.83)" style="fill: #fff"/>
      <path d="M748.23,255.74l-.84,4.53A14.66,14.66,0,0,1,759.07,255a11.15,11.15,0,0,1,6.12,1.69,7.88,7.88,0,0,1,3.28,4.39q5.28-6.22,12.39-6.08,5.49.11,8.28,3.76t2.34,10.54l-.07.92-4.24,25.4H776.73l4.24-25.5a17.41,17.41,0,0,0,.11-2.55q-.26-3.87-4.42-4t-7.34,4.57l-.11.85-4.64,26.61h-10.4l4.24-25.4a17.34,17.34,0,0,0,.11-2.54q-.25-3.92-4.39-4-3.95-.1-7.11,3.72l-5,28.24h-10.4l6.9-39.89Z" transform="translate(-2.83)" style="fill: #fff"/>
      <path d="M833.73,275.83A33,33,0,0,1,830.45,287a18,18,0,0,1-6.23,7.23,14.49,14.49,0,0,1-8.26,2.25,11.5,11.5,0,0,1-9.14-4.32L803.17,311h-10.4l9.55-55.23,9.58,0-.7,4A12.75,12.75,0,0,1,821.38,255a11.31,11.31,0,0,1,9.11,4.25q3.24,4.11,3.46,11.16A42.3,42.3,0,0,1,833.73,275.83Zm-10.32-.76.22-3.54a9.87,9.87,0,0,0-1.31-5.69,4.71,4.71,0,0,0-4-2.18,8.56,8.56,0,0,0-7.48,3.84l-3,16.47c.91,2.49,2.87,3.78,5.86,3.88a7.51,7.51,0,0,0,6.27-2.92Q822.45,281.9,823.41,275.07Z" transform="translate(-2.83)" style="fill: #fff"/>
      <path d="M864.33,265.76a22,22,0,0,0-3.5-.36,10.08,10.08,0,0,0-8.81,4.16l-4.61,26.1H837l6.93-39.89,9.77,0-1,4.86Q856.52,255,862,255a14.92,14.92,0,0,1,3.62.52Z" transform="translate(-2.83)" style="fill: #fff"/>
      <path d="M882.36,296.4a17.33,17.33,0,0,1-9.27-2.56,15.51,15.51,0,0,1-6-6.93,19.26,19.26,0,0,1-1.55-9.72l.11-1.47A25.78,25.78,0,0,1,869,265a20.5,20.5,0,0,1,7.3-7.51,18.1,18.1,0,0,1,9.88-2.48c5.14.09,9,2,11.67,5.66s3.64,8.35,3,14l-.59,4.54H875.83a8.54,8.54,0,0,0,1.88,6.19,7.18,7.18,0,0,0,5.53,2.4,12.77,12.77,0,0,0,10-4.42l4.75,5.9a14.82,14.82,0,0,1-6.49,5.29A21.25,21.25,0,0,1,882.36,296.4Zm3.32-32.77a7.4,7.4,0,0,0-5.11,1.8c-1.49,1.26-2.82,3.43-4,6.53h14.3l.22-1a9.78,9.78,0,0,0,0-2.8,5.36,5.36,0,0,0-1.8-3.34A5.64,5.64,0,0,0,885.68,263.63Z" transform="translate(-2.83)" style="fill: #fff"/>
      <path d="M926.49,284.42c.39-2-1-3.39-4.1-4.28l-3.35-.85q-11.91-3.27-11.58-11.57a11.47,11.47,0,0,1,5-9.2A18.6,18.6,0,0,1,924.05,255c4.5,0,8.14,1.24,10.92,3.57a11.82,11.82,0,0,1,4.24,9.33l-10.33,0c0-3.41-1.64-5.15-5.08-5.2a7.36,7.36,0,0,0-4.23,1.22,5,5,0,0,0-2.19,3.28q-.55,3,4.46,4.17l1.48.33a29.91,29.91,0,0,1,7.78,2.78,11.78,11.78,0,0,1,4.14,3.89,9.68,9.68,0,0,1,1.35,5.57,10.69,10.69,0,0,1-2.45,6.64,15,15,0,0,1-6.42,4.38,22.24,22.24,0,0,1-8.57,1.44,16.83,16.83,0,0,1-11.06-3.82,12.29,12.29,0,0,1-4.5-9.67l9.81.07q.15,5.72,6.12,5.79a8.68,8.68,0,0,0,4.74-1.18A4.68,4.68,0,0,0,926.49,284.42Z" transform="translate(-2.83)" style="fill: #fff"/>
      <path d="M964.46,295.66a10.94,10.94,0,0,1-.41-3.61,13.48,13.48,0,0,1-10.17,4.35A12.26,12.26,0,0,1,945.2,293a10.3,10.3,0,0,1-3.23-8.24,11.92,11.92,0,0,1,5.48-10q5.2-3.48,14-3.48l4.86.07.52-2.4a8.34,8.34,0,0,0,.11-2.32,4,4,0,0,0-1.31-2.71,4.49,4.49,0,0,0-3-1,6.36,6.36,0,0,0-4.13,1.2,5.79,5.79,0,0,0-2.17,3.66l-10.43,0a11.58,11.58,0,0,1,5.25-9.27A20.35,20.35,0,0,1,963.5,255q6.78.14,10.62,4a11.83,11.83,0,0,1,3.21,10l-3.06,19.1-.19,2.36a11.29,11.29,0,0,0,.63,4.42l0,.7Zm-8-7.33q4.5.15,7.85-3.91l1.29-6.9-3.61,0c-3.83.1-6.6,1.26-8.29,3.5a6.08,6.08,0,0,0-1.15,3,3.56,3.56,0,0,0,.83,3.15A4.25,4.25,0,0,0,956.46,288.33Z" transform="translate(-2.83)" style="fill: #fff"/>
      <path d="M1004.13,284.42c.39-2-1-3.39-4.09-4.28l-3.36-.85q-11.91-3.27-11.57-11.57a11.44,11.44,0,0,1,5-9.2,18.61,18.61,0,0,1,11.6-3.48c4.49,0,8.13,1.24,10.91,3.57a11.79,11.79,0,0,1,4.24,9.33l-10.32,0c0-3.41-1.65-5.15-5.09-5.2a7.33,7.33,0,0,0-4.22,1.22,5,5,0,0,0-2.2,3.28q-.56,3,4.46,4.17l1.48.33a29.91,29.91,0,0,1,7.78,2.78,11.9,11.9,0,0,1,4.15,3.89,9.68,9.68,0,0,1,1.34,5.57,10.64,10.64,0,0,1-2.45,6.64,15,15,0,0,1-6.42,4.38,22.24,22.24,0,0,1-8.57,1.44,16.83,16.83,0,0,1-11.06-3.82,12.29,12.29,0,0,1-4.5-9.67L991,283q.15,5.72,6.12,5.79a8.68,8.68,0,0,0,4.74-1.18A4.68,4.68,0,0,0,1004.13,284.42Z" transform="translate(-2.83)" style="fill: #fff"/>
    </g>
    <g>
      <path d="M454.73,37.25c-.16.48-.28,1-.45,1.44-6.19,17.25-20.78,29.58-35.35,31.22l-4.56,16.91h20.42L404.11,197.49h53.24L500.69,37.25Z" transform="translate(-2.83)" style="fill: #fff"/>
      <path d="M586.68,164.26c-20.26,0-35.92-4.64-42.94-12.74-4.31-5-5.86-11.85-4.64-20.5H682l1.61-3.8.5-1.17a82,82,0,0,0,4.27-11.93c2.6-9.92,6.74-35.27-11-56C663.7,42.08,641.42,34,611.15,34c-59.64,0-110.21,33.93-122.95,82.5-7.28,27.72,2,46.15,11,56.72,15.93,18.65,43.91,28.51,81,28.51,33.2,0,57.87-5.2,72.72-9.56l4.91-1.43-.4-5.38L656,166.55l-1-12.71-11.71,3.24c-13.48,3.74-29.68,7.18-56.62,7.18M607.2,69.61c13.5,0,23,2.88,27.6,8.31,3.84,4.57,4.4,11.42,3.47,17.47H553c10-12.68,27.83-25.78,54.22-25.78M357.12,34c-44.69,0-81,19.34-88.23,47a31,31,0,0,0,4.53,25.77c7.95,11.77,23.29,20.58,46.83,26.9,18.31,5.11,22.37,8.76,23.26,10.1.75,1.14.23,3.61,0,4.61-2,7.74-13.46,16.79-39,16.79-16.57,0-33.25-4.8-41.74-9.25l-6.56-3.44-3.52,4.84-14.54,20-5.92,8.11,11.2,5.21c15.16,7.05,36.68,11.1,59,11.1,50.48,0,86.68-18.48,94.47-48.22,2.78-10.58,1.36-20.22-4.21-28.63-7.51-11.33-22.1-19.82-45.93-26.71-19.88-5.73-24.16-8.79-24.95-10.09a5.11,5.11,0,0,1,.24-2.55c2-7.46,13.92-15,33-15,18.9,0,31,5.06,35.27,7.24L396.71,81l3.48-4.63,14.32-19.08,6.06-8.08-11.26-5.29C395.87,37.58,376.84,34,357.12,34m669.1,21.55C1013.84,41,992.68,34,961.51,34c-25.93,0-52.72,4.87-73.49,13.35l-5,2,1.32,5.82,3.94,17.28,2.75,12.22,10.46-4.26c15.68-6.38,35.63-10.19,53.34-10.19,18.78,0,24.69,4.54,26.37,6.49,2.19,2.58,2.68,7.16,1.42,13C903.07,90.31,854,111,844.24,148.07a36.72,36.72,0,0,0,7.9,34c7.65,9,23.27,19.65,54.26,19.65,20.28,0,40.49-4.74,57-13.06,0,0-.13,9.37,15.37,9.37a9,9,0,0,1,3.52.41h32.33l0-6.48c0-8.06,1.87-19.11,5.46-32.8l14.16-54c5.36-20.41,2.64-37.12-8.07-49.66M971,137.65a20,20,0,0,1-3.28,6.18c-7.44,10-25.12,21.62-50.42,21.62-10.08,0-15.78-2.48-17.6-4.62s-1-6.5-.57-8.24c4.54-17.28,30.5-26.84,75.24-27.79ZM784.83,98.14C765,92.41,760.68,89.35,759.9,88.05a5.07,5.07,0,0,1,.24-2.54c1.94-7.47,13.91-15,33-15,18.88,0,31,5.06,35.26,7.23L834.77,81l3.48-4.62,14.31-19.08,6.07-8.08-11.27-5.3C833.93,37.58,814.91,34,795.19,34c-44.7,0-81,19.33-88.25,47a31,31,0,0,0,4.56,25.78c8,11.77,23.28,20.57,46.81,26.89,18.31,5.11,22.37,8.77,23.25,10.1.77,1.14.24,3.6,0,4.61-2,7.75-13.46,16.78-39,16.78-16.59,0-33.27-4.78-41.75-9.25l-6.56-3.43-3.52,4.83-14.56,20-5.89,8.11,11.18,5.21c15.15,7.06,36.68,11.11,59,11.11,50.49,0,86.69-18.48,94.48-48.22,2.8-10.58,1.37-20.22-4.21-28.63-7.51-11.34-22.1-19.83-45.93-26.71" transform="translate(-2.83)" style="fill: #fff"/>
      <path d="M209.8,58.7c-6.22-6-17.58-12.51-37.45-12-39.33,1.07-65.77,25-80.69,46.91,0,0-11.43,14.28-23.17,5.07C57.35,90,58.16,74.16,69,60.19c10-12.92,55-53.68,117.29-31.85A109.8,109.8,0,0,0,19,167.16c6.46,5.42,17.16,10.63,34.47,10.68,39.35.1,66.49-23,82.06-44.47,0,0,11.85-13.94,23.31-4.39,10.88,9.07,9.59,24.86-1.61,38.5-9.82,12-51.72,47.91-108.45,31.6A109.78,109.78,0,0,0,209.8,58.7" transform="translate(-2.83)" style="fill: #fff"/>
    </g>
  </g>
</svg>
