<svg xmlns="http://www.w3.org/2000/svg" viewBox="0 0 1036.86 294.62">
  <g>
    <g>
      <path d="M453.23,45.43c-.15.47-.28,1-.45,1.43-6.2,17.3-20.84,29.66-35.44,31.31l-4.57,17h20.47l-30.75,111h53.37L499.32,45.43Z" transform="translate(-0.14 -8.08)" style="fill: #fff"/>
      <path d="M585.54,172.77c-20.32,0-36-4.66-43.06-12.78-4.32-5-5.88-11.88-4.66-20.56H681.08l1.61-3.8.5-1.17a82.61,82.61,0,0,0,4.29-12c2.6-9.94,6.74-35.34-11-56.17-13.7-16.05-36-24.18-66.38-24.18-59.8,0-110.5,34-123.26,82.72-7.31,27.8,1.95,46.27,11,56.86,16,18.72,44,28.59,81.19,28.59,33.29,0,58-5.21,72.91-9.58l4.92-1.44-.4-5.38L655,175.06l-1-12.74-11.74,3.24c-13.52,3.75-29.76,7.21-56.76,7.21M606.1,77.86c13.54,0,23.11,2.89,27.67,8.33,3.87,4.59,4.42,11.45,3.48,17.52h-85.5c10-12.71,27.9-25.85,54.35-25.85M355.37,42.13c-44.81,0-81.2,19.39-88.47,47.14a31.1,31.1,0,0,0,4.55,25.84c8,11.8,23.35,20.64,46.95,27,18.36,5.12,22.43,8.79,23.32,10.13.76,1.14.23,3.62,0,4.62-2.05,7.76-13.5,16.83-39.08,16.83-16.61,0-33.33-4.8-41.85-9.27L254.17,161l-3.53,4.84-14.58,20L230.13,194l11.24,5.23c15.19,7.07,36.77,11.12,59.17,11.12,50.61,0,86.91-18.52,94.72-48.35,2.79-10.6,1.37-20.27-4.22-28.69-7.52-11.37-22.16-19.88-46.06-26.79-19.93-5.75-24.21-8.82-25-10.13a5.24,5.24,0,0,1,.24-2.54c2-7.49,13.95-15,33.08-15,18.95,0,31,5.07,35.36,7.25l6.4,3.23,3.49-4.63,14.37-19.13L419,57.38l-11.3-5.3c-13.47-6.33-32.54-9.95-52.32-9.95m670.87,21.61c-12.41-14.53-33.63-21.61-64.89-21.61-26,0-52.86,4.88-73.69,13.38l-5,2L884,63.38,888,80.72,890.73,93l10.49-4.26c15.72-6.4,35.71-10.22,53.47-10.22,18.84,0,24.76,4.55,26.44,6.5,2.2,2.59,2.7,7.19,1.43,13.06-79.81.58-129,21.3-138.79,58.5a36.78,36.78,0,0,0,7.92,34.05c7.68,9,23.35,19.71,54.4,19.71,20.34,0,40.6-4.75,57.16-13.09,0,0-.13,9.39,15.41,9.39a9,9,0,0,1,3.53.41h32.42l0-6.49c0-8.09,1.87-19.16,5.47-32.89l14.2-54.1c5.37-20.48,2.65-37.21-8.08-49.79m-55.39,82.34a20.48,20.48,0,0,1-3.29,6.2C960.1,162.27,942.36,174,917,174c-10.11,0-15.81-2.5-17.63-4.64s-1-6.51-.59-8.25c4.55-17.33,30.58-26.92,75.44-27.87ZM784.21,106.47c-19.94-5.75-24.22-8.82-25-10.13a5.23,5.23,0,0,1,.24-2.54c2-7.49,14-15,33.09-15,18.92,0,31,5.07,35.33,7.25l6.43,3.23,3.47-4.63,14.36-19.13,6.06-8.11L846.9,52.07c-13.48-6.32-32.54-9.94-52.31-9.94-44.81,0-81.18,19.38-88.48,47.14a31.06,31.06,0,0,0,4.58,25.85c8,11.79,23.33,20.63,46.93,27,18.35,5.12,22.42,8.8,23.31,10.13.77,1.14.24,3.61,0,4.62-2,7.78-13.49,16.83-39.06,16.83-16.64,0-33.36-4.8-41.87-9.27L693.39,161l-3.53,4.84-14.59,20-5.91,8.13,11.22,5.22c15.19,7.07,36.77,11.14,59.18,11.14,50.61,0,86.91-18.53,94.72-48.35,2.8-10.6,1.38-20.27-4.22-28.69-7.53-11.38-22.15-19.9-46-26.79" transform="translate(-0.14 -8.08)" style="fill: #fff"/>
      <path d="M207.66,66.93c-6.22-6-17.62-12.55-37.54-12C130.67,56,104.17,80,89.21,102c0,0-11.46,14.33-23.22,5.09-11.18-8.75-10.36-24.62.46-38.62,10-13,55.09-53.84,117.59-31.94A110.08,110.08,0,0,0,16.36,175.67c6.47,5.45,17.2,10.67,34.57,10.71,39.44.09,66.65-23.09,82.26-44.59,0,0,11.89-14,23.38-4.39,10.9,9.08,9.62,24.92-1.62,38.59-9.84,12-51.86,48-108.74,31.69A110.06,110.06,0,0,0,207.66,66.93" transform="translate(-0.14 -8.08)" style="fill: #fff"/>
    </g>
    <g>
      <path d="M267.29,274.74q-2.07,7-7,10.15a21.82,21.82,0,0,1-12.11,3.18,19.7,19.7,0,0,1-6.93-1.19,15.3,15.3,0,0,1-5.48-3.45,16.05,16.05,0,0,1-3.6-5.44,18.89,18.89,0,0,1-1.3-7.24,28.16,28.16,0,0,1,1.45-9A24.64,24.64,0,0,1,236.6,254a21.46,21.46,0,0,1,6.9-5.56,20.28,20.28,0,0,1,9.38-2.11,18.06,18.06,0,0,1,8.58,1.77,14.13,14.13,0,0,1,5.14,4.44,16.08,16.08,0,0,1,2.49,5.9,31.21,31.21,0,0,1,.65,6.13,22.06,22.06,0,0,1-.15,2.68c-.11.82-.21,1.56-.31,2.22H239.79a5.59,5.59,0,0,0-.12.69,4.26,4.26,0,0,0,0,.61V272a9.84,9.84,0,0,0,2.19,6.67q2.18,2.52,7.23,2.52a11.09,11.09,0,0,0,6.06-1.6,8.16,8.16,0,0,0,3.44-4.83Zm-6.36-11a3.53,3.53,0,0,0,.07-.66v-1.8a7.9,7.9,0,0,0-2.22-5.78,8.21,8.21,0,0,0-6.12-2.26,10.48,10.48,0,0,0-7.82,3,17.1,17.1,0,0,0-4.21,7.55Z" transform="translate(-0.14 -8.08)" style="fill: #fff"/>
      <path d="M274,262h22.68l-1.61,8.27H272.42Z" transform="translate(-0.14 -8.08)" style="fill: #fff"/>
      <path d="M306,247.39h8.73L306.51,287h-8.73Zm3.14-15.09h8.65l-1.68,8.27h-8.66Z" transform="translate(-0.14 -8.08)" style="fill: #fff"/>
      <path d="M322.52,247.39h8.2l-1.23,5.74.16.16a16.59,16.59,0,0,1,13.63-7c4,0,6.91.95,8.78,2.84a10.44,10.44,0,0,1,2.79,7.66c0,.72,0,1.53-.07,2.45a17.54,17.54,0,0,1-.31,2.45L349.18,287h-8.73l5.06-24.44q.23-1,.42-1.92a8.45,8.45,0,0,0,.19-1.76c0-.31,0-.78,0-1.42a4.24,4.24,0,0,0-.57-1.91,4.41,4.41,0,0,0-1.8-1.65,7.77,7.77,0,0,0-3.64-.69,9.5,9.5,0,0,0-4.64,1.11,16.24,16.24,0,0,0-3.64,2.72,14.18,14.18,0,0,0-2.64,3.79,20.83,20.83,0,0,0-1.65,4.72L323.06,287h-8.73Z" transform="translate(-0.14 -8.08)" style="fill: #fff"/>
      <path d="M359.91,247.39h9l3.3,28.88h.15l15.32-28.88h9.19L375,287h-9.73Z" transform="translate(-0.14 -8.08)" style="fill: #fff"/>
      <path d="M411.93,288.07q-8.28,0-12.79-4.48t-4.52-12.84a26.67,26.67,0,0,1,1.61-9.3,24.46,24.46,0,0,1,4.55-7.78,21.82,21.82,0,0,1,7.13-5.36,21.29,21.29,0,0,1,9.31-2q8.26,0,12.79,4.33t4.52,12.68a30.11,30.11,0,0,1-1.53,9.73,22.81,22.81,0,0,1-4.48,7.86,21.19,21.19,0,0,1-7.13,5.24A22.39,22.39,0,0,1,411.93,288.07Zm4.75-34.86a10.22,10.22,0,0,0-5.86,1.68,15.11,15.11,0,0,0-4.17,4.26,18.76,18.76,0,0,0-2.5,5.7,25,25,0,0,0-.8,6.14,11.82,11.82,0,0,0,2.18,7.27q2.19,2.91,6.94,2.91a10.37,10.37,0,0,0,5.86-1.64,14.74,14.74,0,0,0,4.18-4.22,18.63,18.63,0,0,0,2.48-5.74,25,25,0,0,0,.81-6.17,11.77,11.77,0,0,0-2.19-7.28Q421.44,253.21,416.68,253.21Z" transform="translate(-0.14 -8.08)" style="fill: #fff"/>
      <path d="M444.49,247.39h8.73L445,287h-8.74Zm3.14-15.09h8.66l-1.69,8.27H446Z" transform="translate(-0.14 -8.08)" style="fill: #fff"/>
      <path d="M484.25,260.49q.15-3.67-2-5.48a8.78,8.78,0,0,0-5.83-1.8,9.9,9.9,0,0,0-5.74,1.68,14.15,14.15,0,0,0-4.06,4.3,20.84,20.84,0,0,0-2.42,5.7,24,24,0,0,0-.8,5.94,17,17,0,0,0,.46,4.1,8.69,8.69,0,0,0,1.5,3.25,7.08,7.08,0,0,0,2.71,2.19,9.55,9.55,0,0,0,4.14.8,9.67,9.67,0,0,0,6.4-2.06,11.47,11.47,0,0,0,3.56-5.75h8.73q-2.15,7.67-7.2,11.18t-12.95,3.53a18,18,0,0,1-6.89-1.23,13.6,13.6,0,0,1-5-3.48,15.67,15.67,0,0,1-3.1-5.37,20.68,20.68,0,0,1-1.07-6.85,29.41,29.41,0,0,1,1.53-9.5,23.76,23.76,0,0,1,4.44-7.93,21.3,21.3,0,0,1,7.09-5.4,21.68,21.68,0,0,1,9.46-2,20.64,20.64,0,0,1,6.21.92,15,15,0,0,1,5,2.69,12.08,12.08,0,0,1,3.37,4.44,13.82,13.82,0,0,1,1.15,6.13Z" transform="translate(-0.14 -8.08)" style="fill: #fff"/>
      <path d="M501.72,247.39h8.73L502.26,287h-8.74Zm3.14-15.09h8.66l-1.69,8.27h-8.66Z" transform="translate(-0.14 -8.08)" style="fill: #fff"/>
      <path d="M518.27,247.39h8.19l-1.22,5.74.15.16a16.63,16.63,0,0,1,13.64-7q6,0,8.77,2.84a10.45,10.45,0,0,1,2.8,7.66c0,.72,0,1.53-.08,2.45a16.16,16.16,0,0,1-.31,2.45L544.93,287h-8.74l5.06-24.44q.22-1,.42-1.92a8.45,8.45,0,0,0,.19-1.76c0-.31,0-.78,0-1.42a4.24,4.24,0,0,0-.57-1.91,4.41,4.41,0,0,0-1.8-1.65,7.74,7.74,0,0,0-3.64-.69,9.47,9.47,0,0,0-4.63,1.11,16.07,16.07,0,0,0-3.65,2.72,14.18,14.18,0,0,0-2.64,3.79,20.83,20.83,0,0,0-1.65,4.72L518.8,287h-8.73Z" transform="translate(-0.14 -8.08)" style="fill: #fff"/>
      <path d="M588.44,285.92a37.09,37.09,0,0,1-2.49,7.74,14.91,14.91,0,0,1-3.83,5.21,14.54,14.54,0,0,1-5.67,2.91,30.08,30.08,0,0,1-8,.92,28.73,28.73,0,0,1-6.4-.69,16.82,16.82,0,0,1-5.36-2.18,11.53,11.53,0,0,1-3.76-3.91,12,12,0,0,1-1.49-5.86h8.73a5.23,5.23,0,0,0,2.72,4.75,13.21,13.21,0,0,0,6.32,1.38,12.09,12.09,0,0,0,4.83-.84,8.93,8.93,0,0,0,3.18-2.3,10.39,10.39,0,0,0,1.95-3.49,41.5,41.5,0,0,0,1.23-4.48l.84-3.91-.15-.15a13,13,0,0,1-11.19,6q-7.42,0-11.41-4.33t-4-11.92a30.29,30.29,0,0,1,1.34-8.84,25.61,25.61,0,0,1,3.91-7.86,20.17,20.17,0,0,1,6.4-5.59,17.72,17.72,0,0,1,8.81-2.15,15.09,15.09,0,0,1,7.51,1.77,11,11,0,0,1,4.75,5.9h.15l1.15-6.59h8.27Zm-25.2-15.63a15.16,15.16,0,0,0,.46,3.8,8.81,8.81,0,0,0,1.45,3.14,6.87,6.87,0,0,0,2.57,2.1,8.43,8.43,0,0,0,3.79.77,10.83,10.83,0,0,0,6-1.61,13.43,13.43,0,0,0,4.09-4.13,17.82,17.82,0,0,0,2.34-5.68,27.32,27.32,0,0,0,.73-6.12,9.93,9.93,0,0,0-2.22-6.86c-1.49-1.66-3.68-2.49-6.59-2.49a9.53,9.53,0,0,0-5.59,1.65,13.93,13.93,0,0,0-3.95,4.17,19.5,19.5,0,0,0-2.34,5.56A23.25,23.25,0,0,0,563.24,270.29Z" transform="translate(-0.14 -8.08)" style="fill: #fff"/>
    </g>
  </g>
</svg>
