<svg xmlns="http://www.w3.org/2000/svg" viewBox="0 0 1036.57 294.14">
  <g>
    <g>
      <path d="M453.4,45.77c-.16.47-.28,1-.45,1.43-6.21,17.3-20.84,29.66-35.44,31.3l-4.57,17h20.47L402.66,206.38H456L499.46,45.77Z" transform="translate(-0.43 -8.43)" style="fill: #fff"/>
      <path d="M585.66,173.07c-20.31,0-36-4.65-43-12.77-4.32-5-5.88-11.88-4.66-20.55H681.18l1.61-3.8.5-1.17a82.79,82.79,0,0,0,4.28-12c2.61-9.94,6.75-35.33-11-56.15-13.69-16.05-36-24.17-66.36-24.17-59.78,0-110.47,34-123.23,82.69-7.31,27.79,2,46.26,11,56.84,16,18.71,44,28.59,81.16,28.59,33.29,0,58-5.22,72.89-9.58l4.93-1.44-.4-5.38-1.43-18.84-1-12.74-11.74,3.25c-13.51,3.74-29.75,7.2-56.75,7.2m20.56-94.88c13.54,0,23.11,2.9,27.67,8.33C637.75,91.1,638.3,98,637.36,104H551.88c10.06-12.71,27.9-25.85,54.34-25.85M355.56,42.48c-44.8,0-81.18,19.37-88.44,47.12a31.08,31.08,0,0,0,4.54,25.83c8,11.8,23.34,20.64,46.94,27,18.35,5.12,22.42,8.79,23.31,10.13.76,1.14.24,3.62,0,4.62C339.82,164.9,328.37,174,302.8,174c-16.6,0-33.31-4.81-41.84-9.27l-6.58-3.44-3.53,4.84-14.57,20-5.92,8.13,11.23,5.23c15.19,7.06,36.76,11.12,59.15,11.12,50.6,0,86.89-18.52,94.69-48.34,2.8-10.59,1.38-20.26-4.21-28.69-7.52-11.35-22.16-19.87-46-26.77C325.25,101,321,98,320.18,96.67a5.07,5.07,0,0,1,.24-2.54c2-7.49,13.94-15,33.07-15,18.94,0,31,5.07,35.35,7.25l6.4,3.23L398.73,85l14.36-19.13,6.07-8.1-11.3-5.3c-13.46-6.33-32.53-9.94-52.3-9.94m670.68,21.59c-12.41-14.52-33.62-21.59-64.87-21.59-26,0-52.84,4.87-73.67,13.37l-5,2,1.32,5.82,4,17.34,2.76,12.24L901.25,89C917,82.63,937,78.81,954.71,78.81c18.83,0,24.76,4.55,26.43,6.5,2.21,2.59,2.7,7.19,1.43,13.06-79.78.58-129,21.29-138.74,58.48a36.75,36.75,0,0,0,7.91,34c7.68,9,23.34,19.71,54.39,19.71,20.33,0,40.59-4.75,57.14-13.09,0,0-.13,9.39,15.41,9.39a9.08,9.08,0,0,1,3.53.41h32.4l0-6.49c0-8.09,1.87-19.15,5.47-32.88l14.19-54.08c5.37-20.48,2.65-37.21-8.08-49.79m-55.37,82.32a20.31,20.31,0,0,1-3.3,6.2c-7.45,10-25.18,21.68-50.54,21.68-10.1,0-15.8-2.5-17.62-4.64s-1-6.51-.59-8.25c4.55-17.33,30.57-26.91,75.42-27.87ZM784.28,106.8c-19.94-5.76-24.21-8.82-25-10.13a5.23,5.23,0,0,1,.24-2.54c2-7.49,14-15,33.07-15,18.92,0,31,5.07,35.33,7.25l6.42,3.23L837.82,85l14.35-19.13,6.06-8.11L847,52.41c-13.47-6.32-32.53-9.93-52.3-9.93-44.79,0-81.15,19.37-88.44,47.12a31.06,31.06,0,0,0,4.57,25.85c8,11.78,23.32,20.62,46.91,26.94,18.36,5.12,22.42,8.8,23.31,10.13.77,1.14.24,3.61,0,4.62-2,7.78-13.49,16.83-39.05,16.83-16.63,0-33.35-4.8-41.85-9.27l-6.59-3.45L690,166.1l-14.59,20-5.91,8.12,11.22,5.22c15.18,7.07,36.76,11.14,59.16,11.14,50.6,0,86.89-18.53,94.7-48.34,2.8-10.59,1.38-20.26-4.22-28.69-7.53-11.37-22.15-19.88-46-26.77" transform="translate(-0.43 -8.43)" style="fill: #fff"/>
      <path d="M207.89,67.27c-6.22-6-17.62-12.56-37.53-12-39.43,1.07-65.93,25.06-80.89,47,0,0-11.45,14.32-23.22,5.09-11.17-8.75-10.35-24.62.47-38.62,10-13,55.08-53.82,117.55-31.93A110,110,0,0,0,16.65,176c6.46,5.44,17.19,10.66,34.55,10.71,39.43.09,66.63-23.09,82.24-44.59,0,0,11.89-14,23.37-4.39,10.9,9.08,9.62,24.91-1.62,38.58-9.83,12-51.84,48-108.71,31.69A110,110,0,0,0,207.89,67.27" transform="translate(-0.43 -8.43)" style="fill: #fff"/>
    </g>
    <g>
      <path d="M274.09,264.81q0-5.74-3.18-8.73t-9.15-3a16.05,16.05,0,0,0-8.54,2.22,19.2,19.2,0,0,0-6.05,5.82,27.12,27.12,0,0,0-3.64,8.12,34.53,34.53,0,0,0-1.23,9.11q0,7.67,3.91,12t11.1,4.36a12.61,12.61,0,0,0,6.21-1.41,14.36,14.36,0,0,0,4.17-3.45,16.68,16.68,0,0,0,2.53-4.17,31.06,31.06,0,0,0,1.26-3.53h9.58a30.09,30.09,0,0,1-3.45,9,23.62,23.62,0,0,1-5.47,6.36,21.78,21.78,0,0,1-7.05,3.75,26.5,26.5,0,0,1-8.08,1.23,27.57,27.57,0,0,1-10.42-1.84,21.47,21.47,0,0,1-7.58-5.06,21.71,21.71,0,0,1-4.67-7.58,27.09,27.09,0,0,1-1.61-9.42,39.52,39.52,0,0,1,2.56-14.9A30.38,30.38,0,0,1,242,253.36a27.25,27.25,0,0,1,9.42-6.09,29.67,29.67,0,0,1,10.61-2,28.94,28.94,0,0,1,8.89,1.3,20.08,20.08,0,0,1,6.93,3.75,16.1,16.1,0,0,1,4.4,6.13,19.86,19.86,0,0,1,1.38,8.35Z" transform="translate(-0.43 -8.43)" style="fill: #fff"/>
      <path d="M295.15,246.58h23.67a45.36,45.36,0,0,1,4.67.31,16.63,16.63,0,0,1,5.7,1.68,13.11,13.11,0,0,1,4.83,4.18q2,2.79,2,7.77,0,6.51-3.29,10.15a15.78,15.78,0,0,1-9.12,4.71v.15a7.79,7.79,0,0,1,4.63,3.87,14,14,0,0,1,1.19,6,35,35,0,0,1-.46,5.67,30.89,30.89,0,0,0-.38,5.67,13.61,13.61,0,0,0,.19,2.29,6.53,6.53,0,0,0,.81,2.23h-10a10,10,0,0,1-.5-2.07,20.58,20.58,0,0,1-.11-2.15,38.57,38.57,0,0,1,.46-6,39.41,39.41,0,0,0,.46-5.94,6.57,6.57,0,0,0-.88-3.67,5,5,0,0,0-2.34-1.88,11,11,0,0,0-3.29-.69c-1.23-.07-2.48-.11-3.75-.11H298.21l-4.67,22.52h-9.73Zm4.59,24.89h14q6.21,0,9.46-2.56a8.88,8.88,0,0,0,3.25-7.4,7.23,7.23,0,0,0-.8-3.63,5.66,5.66,0,0,0-2.18-2.19,9.36,9.36,0,0,0-3.14-1,24.32,24.32,0,0,0-3.68-.27h-13.4Z" transform="translate(-0.43 -8.43)" style="fill: #fff"/>
      <path d="M347.38,246.58h13.18l6,41.67h.15l23.75-41.67H404l-11.25,54.69h-9.2l9.5-43.81h-.15l-24.74,43.81h-7.51l-6.89-43.81h-.15l-8.35,43.81h-9.19Z" transform="translate(-0.43 -8.43)" style="fill: #fff"/>
    </g>
  </g>
</svg>
