<svg xmlns="http://www.w3.org/2000/svg" viewBox="0 0 1037 294.26">
  <g>
    <path d="M412.68,95.42h20.48l-30.76,111h53.38L499.24,45.72H453.15c-.15.47-.28,1-.45,1.44-6.21,17.3-20.84,29.66-35.45,31.31Z" transform="translate(0 -8.37)" style="fill: #fff"/>
    <path d="M300.44,210.62c50.61,0,86.92-18.52,94.73-48.36,2.79-10.6,1.37-20.27-4.22-28.7-7.52-11.36-22.17-19.88-46.06-26.78C325,101,320.67,98,319.88,96.64a5.24,5.24,0,0,1,.24-2.54c2-7.49,13.95-15,33.08-15,19,0,31.05,5.07,35.37,7.25l6.4,3.24,3.49-4.64,14.37-19.13,6.07-8.11-11.3-5.31c-13.47-6.33-32.55-9.94-52.33-9.94-44.81,0-81.2,19.38-88.47,47.14a31.13,31.13,0,0,0,4.54,25.85c8,11.8,23.35,20.64,47,27,18.36,5.12,22.43,8.79,23.32,10.13.76,1.14.24,3.62,0,4.62C339.53,164.9,328.08,174,302.5,174c-16.62,0-33.33-4.81-41.86-9.28l-6.58-3.44-3.53,4.85-14.59,20L230,194.27l11.24,5.22C256.45,206.56,278,210.62,300.44,210.62Z" transform="translate(0 -8.37)" style="fill: #fff"/>
    <path d="M1026.24,64c-12.42-14.52-33.64-21.6-64.9-21.6-26,0-52.87,4.87-73.7,13.38l-5,2L884,63.68,887.94,81l2.77,12.25L901.2,89c15.72-6.4,35.72-10.22,53.48-10.22,18.84,0,24.76,4.55,26.44,6.5,2.2,2.6,2.7,7.19,1.43,13.06-79.82.58-129.06,21.3-138.8,58.51a36.78,36.78,0,0,0,7.92,34.06c7.67,9,23.35,19.71,54.4,19.71,20.34,0,40.61-4.75,57.17-13.09,0,0-.13,9.39,15.41,9.39a9,9,0,0,1,3.53.41h32.42l0-6.49c0-8.1,1.87-19.16,5.47-32.9l14.2-54.1C1039.7,93.36,1037,76.62,1026.24,64Zm-55.4,82.36a20.48,20.48,0,0,1-3.29,6.2c-7.46,10-25.2,21.69-50.57,21.69-10.11,0-15.81-2.5-17.63-4.64s-1-6.52-.59-8.26c4.55-17.33,30.58-26.92,75.46-27.88Z" transform="translate(0 -8.37)" style="fill: #fff"/>
    <path d="M578.93,210.62c33.3,0,58-5.22,72.92-9.58l4.93-1.44-.4-5.39L655,175.37l-1-12.74-11.74,3.25c-13.52,3.74-29.77,7.2-56.77,7.2-20.32,0-36-4.66-43.07-12.78-4.32-5-5.88-11.88-4.66-20.56H681l1.61-3.8.5-1.17a82.61,82.61,0,0,0,4.29-12c2.61-9.94,6.75-35.35-11-56.18-13.7-16.06-36-24.18-66.39-24.18-59.81,0-110.51,34-123.28,82.72-7.31,27.81,1.95,46.29,11,56.87C513.7,200.74,541.77,210.62,578.93,210.62ZM606,78.16c13.54,0,23.12,2.89,27.68,8.33,3.86,4.59,4.41,11.45,3.48,17.53H551.68C561.74,91.3,579.59,78.16,606,78.16Z" transform="translate(0 -8.37)" style="fill: #fff"/>
    <path d="M792.49,79.07c18.93,0,31,5.07,35.35,7.25l6.42,3.23,3.48-4.63,14.35-19.13,6.07-8.12-11.29-5.3c-13.47-6.33-32.54-9.94-52.32-9.94-44.81,0-81.19,19.38-88.48,47.14a31.08,31.08,0,0,0,4.57,25.86c8,11.79,23.34,20.63,46.94,27,18.36,5.12,22.43,8.8,23.31,10.13.78,1.14.24,3.61,0,4.62-2,7.78-13.5,16.84-39.08,16.84-16.63,0-33.36-4.8-41.86-9.28l-6.59-3.44-3.53,4.84-14.59,20-5.91,8.13,11.22,5.22c15.19,7.07,36.77,11.14,59.18,11.14,50.63,0,86.93-18.54,94.74-48.36,2.8-10.6,1.38-20.27-4.22-28.7-7.53-11.37-22.16-19.89-46.05-26.78C764.23,101,760,98,759.17,96.64a5.11,5.11,0,0,1,.23-2.54C761.36,86.61,773.37,79.07,792.49,79.07Z" transform="translate(0 -8.37)" style="fill: #fff"/>
    <path d="M170,55.23c-39.45,1.07-66,25.07-80.93,47,0,0-11.45,14.33-23.22,5.1-11.17-8.76-10.36-24.63.46-38.63,10-13,55.11-53.85,117.61-31.95A110.1,110.1,0,0,0,16.22,176c6.47,5.44,17.2,10.66,34.57,10.71,39.45.09,66.66-23.1,82.27-44.6,0,0,11.89-14,23.39-4.39,10.9,9.08,9.62,24.92-1.62,38.59-9.84,12-51.87,48-108.76,31.7A110.09,110.09,0,0,0,207.55,67.23C201.32,61.21,189.92,54.67,170,55.23Z" transform="translate(0 -8.37)" style="fill: #fff"/>
    <path d="M269.9,285.77a16.73,16.73,0,0,1-2.53,4.18,14.52,14.52,0,0,1-4.17,3.45,12.61,12.61,0,0,1-6.21,1.41q-7.2,0-11.11-4.37t-3.91-12a34.53,34.53,0,0,1,1.23-9.11,27.18,27.18,0,0,1,3.64-8.13,19.31,19.31,0,0,1,6-5.82,16.08,16.08,0,0,1,8.54-2.22q6,0,9.16,3t3.18,8.73h9.58A19.88,19.88,0,0,0,282,256.5a16,16,0,0,0-4.41-6.13,19.9,19.9,0,0,0-6.93-3.75,28.94,28.94,0,0,0-8.89-1.3,29.83,29.83,0,0,0-10.61,2,27.22,27.22,0,0,0-9.43,6.1A30.43,30.43,0,0,0,235,263.82a39.47,39.47,0,0,0-2.57,14.9,27.19,27.19,0,0,0,1.61,9.43,21.83,21.83,0,0,0,4.68,7.58,21.47,21.47,0,0,0,7.58,5.06,27.41,27.41,0,0,0,10.42,1.84,26.56,26.56,0,0,0,8.09-1.23,22,22,0,0,0,7.05-3.75,23.65,23.65,0,0,0,5.48-6.36,30,30,0,0,0,3.44-9h-9.58A31.72,31.72,0,0,1,269.9,285.77Z" transform="translate(0 -8.37)" style="fill: #fff"/>
    <polygon points="293.85 238.25 282.5 292.95 291.24 292.95 302.58 238.25 293.85 238.25" style="fill: #fff"/>
    <path d="M323.5,260.64a21.28,21.28,0,0,0-9.31,2,22,22,0,0,0-7.13,5.36,24.59,24.59,0,0,0-4.56,7.78,27,27,0,0,0-1.61,9.31q0,8.35,4.52,12.83t12.8,4.49a22.36,22.36,0,0,0,9.46-1.92,21.12,21.12,0,0,0,7.13-5.25,22.67,22.67,0,0,0,4.48-7.85,30.16,30.16,0,0,0,1.53-9.73q0-8.36-4.52-12.68T323.5,260.64Zm7.77,23.25a18.47,18.47,0,0,1-2.49,5.75,14.43,14.43,0,0,1-4.17,4.21,10.38,10.38,0,0,1-5.86,1.65q-4.75,0-6.94-2.91a11.83,11.83,0,0,1-2.18-7.28,25,25,0,0,1,.8-6.13,19.16,19.16,0,0,1,2.49-5.71,15.11,15.11,0,0,1,4.18-4.25,10.22,10.22,0,0,1,5.86-1.69c3.17,0,5.48,1,6.93,2.92a11.75,11.75,0,0,1,2.19,7.28A24.84,24.84,0,0,1,331.27,283.89Z" transform="translate(0 -8.37)" style="fill: #fff"/>
    <path d="M372.15,283.16a18.64,18.64,0,0,1-1.53,4.41,17.08,17.08,0,0,1-2.68,3.95,13.83,13.83,0,0,1-3.72,2.87,9.78,9.78,0,0,1-4.64,1.11,7.66,7.66,0,0,1-3.67-.69,4.38,4.38,0,0,1-1.77-1.65,4.33,4.33,0,0,1-.57-1.91c0-.64,0-1.11,0-1.42a9.18,9.18,0,0,1,.19-1.76q.19-.92.42-1.92l5.06-24.44h-8.73L345.18,287a16.16,16.16,0,0,0-.31,2.45c-.05.92-.07,1.73-.07,2.45a10.44,10.44,0,0,0,2.79,7.66c1.87,1.89,4.79,2.84,8.78,2.84a16.65,16.65,0,0,0,7.7-1.84,16.84,16.84,0,0,0,5.94-5.13l.15.15-1.23,5.74h8.2l8.2-39.61H376.6Z" transform="translate(0 -8.37)" style="fill: #fff"/>
    <path d="M420,267.15h-.15a9.27,9.27,0,0,0-4.75-5.06,17.31,17.31,0,0,0-7.2-1.45,18.69,18.69,0,0,0-9.12,2.18,21.22,21.22,0,0,0-6.74,5.79,26.57,26.57,0,0,0-4.22,8.16,30.68,30.68,0,0,0-1.45,9.38c0,3.73.58,6.67,1.76,8.82a13.14,13.14,0,0,0,9.35,7,26.21,26.21,0,0,0,4.29.46,16.35,16.35,0,0,0,6.66-1.38,14,14,0,0,0,5.75-5.21l.15.15-1.22,5.36h8.35l11.65-54.7h-8.74Zm-3.14,16.13a20.88,20.88,0,0,1-2.57,6,15.55,15.55,0,0,1-4.25,4.48,10.07,10.07,0,0,1-5.9,1.76c-3.06,0-5.34-.81-6.82-2.45a9.9,9.9,0,0,1-2.22-6.9,28,28,0,0,1,.81-6.62,20,20,0,0,1,2.48-6,13.68,13.68,0,0,1,4.3-4.33,11.57,11.57,0,0,1,6.28-1.65,9.55,9.55,0,0,1,4,.77,7.37,7.37,0,0,1,2.72,2,8.34,8.34,0,0,1,1.54,3,13.51,13.51,0,0,1,.49,3.68A25,25,0,0,1,416.82,283.28Z" transform="translate(0 -8.37)" style="fill: #fff"/>
    <path d="M470.69,254.43a11.49,11.49,0,0,1,3.52-1.07,23.25,23.25,0,0,1,2.76-.23q5.59,0,8.35,2.26c1.84,1.51,2.78,4,2.84,7.39h9.19a18.13,18.13,0,0,0-1.38-8.16,13.83,13.83,0,0,0-4.29-5.4,17.71,17.71,0,0,0-6.51-3,34,34,0,0,0-8.05-.91,27.29,27.29,0,0,0-8.62,1.26,18.7,18.7,0,0,0-6.4,3.52,15.24,15.24,0,0,0-4,5.4,16.8,16.8,0,0,0-1.38,6.82,11.58,11.58,0,0,0,1.65,6.44,14,14,0,0,0,4,4.1,19.67,19.67,0,0,0,4.91,2.38c1.68.53,3.14.95,4.36,1.26,1.69.46,3.32.93,4.91,1.42a20,20,0,0,1,4.17,1.76,9.08,9.08,0,0,1,2.91,2.57,6.34,6.34,0,0,1,1.11,3.83,6.85,6.85,0,0,1-1.18,4.1,9.69,9.69,0,0,1-3,2.68,12.89,12.89,0,0,1-3.95,1.49,19.73,19.73,0,0,1-4.1.46q-6,0-9.42-2.6t-3.14-9h-9.2a22.71,22.71,0,0,0,1.26,8.81,14.82,14.82,0,0,0,4.14,6,17.24,17.24,0,0,0,6.63,3.45,32,32,0,0,0,8.74,1.11,31.24,31.24,0,0,0,10.53-1.57,20.53,20.53,0,0,0,7.05-4.1,15.48,15.48,0,0,0,3.95-5.67,17.56,17.56,0,0,0,1.22-6.36,14.37,14.37,0,0,0-1.49-7,12.62,12.62,0,0,0-3.91-4.32,20,20,0,0,0-5.36-2.57c-2-.61-3.92-1.18-5.86-1.69-1.54-.35-3-.74-4.37-1.14a16.47,16.47,0,0,1-3.64-1.54,7.7,7.7,0,0,1-2.49-2.22,5.54,5.54,0,0,1-.92-3.3,6.6,6.6,0,0,1,1.3-4.33A9.15,9.15,0,0,1,470.69,254.43Z" transform="translate(0 -8.37)" style="fill: #fff"/>
    <path d="M534.05,266.85a14.13,14.13,0,0,0-5.13-4.45,18.24,18.24,0,0,0-8.58-1.76,20.17,20.17,0,0,0-9.39,2.11,21.16,21.16,0,0,0-6.89,5.55,24.52,24.52,0,0,0-4.26,7.82,28.16,28.16,0,0,0-1.45,9,18.92,18.92,0,0,0,1.3,7.24,16.15,16.15,0,0,0,3.6,5.44,15.3,15.3,0,0,0,5.48,3.45,19.7,19.7,0,0,0,6.93,1.19,21.79,21.79,0,0,0,12.11-3.18q4.9-3.18,7-10.15H526a8.12,8.12,0,0,1-3.45,4.82,11,11,0,0,1-6,1.61c-3.37,0-5.79-.84-7.24-2.53a9.79,9.79,0,0,1-2.19-6.66v-1.23a4.17,4.17,0,0,1,0-.61c0-.2.06-.44.11-.69h29.51q.15-1,.3-2.22a22.12,22.12,0,0,0,.16-2.69,30.58,30.58,0,0,0-.66-6.13A15.71,15.71,0,0,0,534.05,266.85Zm-5.59,10v.57a3.46,3.46,0,0,1-.08.65h-20.3a17.25,17.25,0,0,1,4.21-7.55,10.52,10.52,0,0,1,7.82-3,8.24,8.24,0,0,1,6.13,2.26,7.93,7.93,0,0,1,2.22,5.79Z" transform="translate(0 -8.37)" style="fill: #fff"/>
    <path d="M595.12,261.71,579.8,290.6h-.16l-3.29-28.89H569l.18-.84a19.27,19.27,0,0,0-2.1-.19c-.69,0-1.4,0-2.11,0a10,10,0,0,0-4,.8,15.69,15.69,0,0,0-3.48,2.07,19.51,19.51,0,0,0-3,2.87,22.29,22.29,0,0,0-2.26,3.22l-.16-.15,1.61-7.74h-8.27l-8.2,39.61h8.73l3.68-17.54a33.9,33.9,0,0,1,1.68-5.67,17.62,17.62,0,0,1,2.8-4.75,12.44,12.44,0,0,1,4.22-3.26,13.5,13.5,0,0,1,5.86-1.19c.51,0,1,0,1.53.08s1,.13,1.53.23l.59-2.64,4.7,34.74h9.73l21.92-39.61Z" transform="translate(0 -8.37)" style="fill: #fff"/>
    <polygon points="611.52 238.25 609.83 246.52 618.49 246.52 620.18 238.25 611.52 238.25" style="fill: #fff"/>
    <polygon points="600.18 292.95 608.91 292.95 617.11 253.34 608.38 253.34 600.18 292.95" style="fill: #fff"/>
    <path d="M630.52,273.51a14.11,14.11,0,0,1,4.06-4.29,9.92,9.92,0,0,1,5.75-1.69,8.77,8.77,0,0,1,5.82,1.8c1.43,1.21,2.1,3,2,5.48h8.74a13.77,13.77,0,0,0-1.15-6.12,12.31,12.31,0,0,0-3.37-4.45,14.85,14.85,0,0,0-5.06-2.68,20.59,20.59,0,0,0-6.21-.92,21.67,21.67,0,0,0-9.46,2,21.3,21.3,0,0,0-7.09,5.4A24,24,0,0,0,620.1,276a29.46,29.46,0,0,0-1.53,9.5,20.74,20.74,0,0,0,1.07,6.86,15.51,15.51,0,0,0,3.1,5.37,13.6,13.6,0,0,0,5,3.48,18,18,0,0,0,6.9,1.23q7.89,0,13-3.53t7.2-11.18h-8.73a11.41,11.41,0,0,1-3.57,5.74A11,11,0,0,1,632,294.7a7.21,7.21,0,0,1-2.72-2.19,8.84,8.84,0,0,1-1.5-3.25,17.56,17.56,0,0,1-.46-4.1,23.53,23.53,0,0,1,.81-5.94A20.57,20.57,0,0,1,630.52,273.51Z" transform="translate(0 -8.37)" style="fill: #fff"/>
    <path d="M694.81,266.85a14.24,14.24,0,0,0-5.14-4.45,18.18,18.18,0,0,0-8.58-1.76,20.23,20.23,0,0,0-9.39,2.11,21.16,21.16,0,0,0-6.89,5.55,24.5,24.5,0,0,0-4.25,7.82,27.9,27.9,0,0,0-1.46,9,18.92,18.92,0,0,0,1.3,7.24,16.15,16.15,0,0,0,3.6,5.44,15.39,15.39,0,0,0,5.48,3.45,19.71,19.71,0,0,0,6.94,1.19,21.78,21.78,0,0,0,12.1-3.18q4.9-3.18,7-10.15h-8.74a8.08,8.08,0,0,1-3.45,4.82,11,11,0,0,1-6,1.61c-3.37,0-5.79-.84-7.24-2.53a9.79,9.79,0,0,1-2.19-6.66v-1.23c0-.2,0-.41,0-.61s.07-.44.12-.69h29.5c.1-.66.2-1.4.31-2.22a22.23,22.23,0,0,0,.15-2.69,31.29,31.29,0,0,0-.65-6.13A16,16,0,0,0,694.81,266.85Zm-5.6,10v.57a3.36,3.36,0,0,1-.07.65H668.83a17.17,17.17,0,0,1,4.22-7.55,10.49,10.49,0,0,1,7.81-3,8.22,8.22,0,0,1,6.13,2.26,7.93,7.93,0,0,1,2.22,5.79Z" transform="translate(0 -8.37)" style="fill: #fff"/>
    <path d="M713.54,268.57a6.51,6.51,0,0,1,2.15-.8,12.52,12.52,0,0,1,2.49-.24,10.59,10.59,0,0,1,5.71,1.38,5,5,0,0,1,2.26,4.37h8.27a13.43,13.43,0,0,0-1.11-6.13,10,10,0,0,0-3.29-3.91,13.57,13.57,0,0,0-4.95-2,30.62,30.62,0,0,0-6.05-.57,25.87,25.87,0,0,0-6,.69,16.73,16.73,0,0,0-5.21,2.15,11.46,11.46,0,0,0-3.71,3.75,10.25,10.25,0,0,0-1.42,5.51,9.72,9.72,0,0,0,.69,3.84,8.61,8.61,0,0,0,1.91,2.79,12.47,12.47,0,0,0,2.8,2,23.78,23.78,0,0,0,3.33,1.46q2.07.76,4.26,1.38a32.7,32.7,0,0,1,3.9,1.34,10.3,10.3,0,0,1,2.84,1.72,3.26,3.26,0,0,1,1.11,2.53,4.68,4.68,0,0,1-.8,2.8,5.52,5.52,0,0,1-2,1.72,10.11,10.11,0,0,1-2.69.88,15.47,15.47,0,0,1-2.83.27,11.83,11.83,0,0,1-6.36-1.57c-1.69-1-2.48-2.82-2.38-5.32h-8.27a15.79,15.79,0,0,0,1.38,6.7,10.88,10.88,0,0,0,3.52,4.21,14.19,14.19,0,0,0,5.21,2.23,30.55,30.55,0,0,0,6.44.65,28.37,28.37,0,0,0,6.4-.73,17.12,17.12,0,0,0,5.63-2.34,13.07,13.07,0,0,0,4-4.06,10.91,10.91,0,0,0,1.53-5.9,9.78,9.78,0,0,0-.76-4.06,9.57,9.57,0,0,0-2-2.91,11.65,11.65,0,0,0-3-2.07c-1.12-.56-2.28-1.07-3.45-1.53-1.38-.51-2.76-1-4.14-1.34s-2.63-.79-3.75-1.23a9.85,9.85,0,0,1-2.72-1.49,2.72,2.72,0,0,1-1-2.22,4.66,4.66,0,0,1,.58-2.42A4.31,4.31,0,0,1,713.54,268.57Z" transform="translate(0 -8.37)" style="fill: #fff"/>
  </g>
</svg>
