<svg xmlns="http://www.w3.org/2000/svg" viewBox="0 0 1037.17 294.31">
  <g>
    <g>
      <path d="M453.06,45.7c-.16.48-.28,1-.45,1.44-6.21,17.3-20.85,29.67-35.46,31.31l-4.57,17h20.48l-30.77,111h53.4L499.15,45.7Z" transform="translate(0.17 -8.35)" style="fill: #fff"/>
      <path d="M585.4,173.08c-20.32,0-36-4.65-43.07-12.77-4.32-5-5.88-11.89-4.66-20.57H681l1.62-3.8.49-1.17a82.82,82.82,0,0,0,4.29-12c2.61-9.94,6.75-35.35-11-56.18-13.7-16.06-36-24.19-66.4-24.19-59.82,0-110.53,34-123.3,82.74-7.31,27.81,1.95,46.29,11,56.88,16,18.72,44.05,28.6,81.22,28.6,33.3,0,58-5.22,72.93-9.58l4.92-1.45-.4-5.38-1.42-18.84-1-12.75-11.74,3.25c-13.52,3.74-29.77,7.2-56.78,7.2M606,78.15c13.54,0,23.12,2.89,27.68,8.33,3.86,4.59,4.42,11.45,3.48,17.53H551.6C561.66,91.29,579.51,78.15,606,78.15M355.16,42.41c-44.82,0-81.22,19.39-88.49,47.15a31.09,31.09,0,0,0,4.55,25.85c8,11.8,23.35,20.64,47,27,18.36,5.12,22.43,8.79,23.32,10.13.77,1.14.24,3.62,0,4.62C339.42,164.9,328,174,302.38,174c-16.62,0-33.34-4.81-41.87-9.28l-6.58-3.44-3.53,4.85-14.59,20-5.92,8.13,11.23,5.23c15.2,7.07,36.79,11.13,59.19,11.13,50.63,0,86.94-18.53,94.75-48.37,2.8-10.6,1.38-20.27-4.22-28.7-7.52-11.36-22.17-19.88-46.07-26.79-19.94-5.76-24.22-8.83-25-10.14a5.24,5.24,0,0,1,.24-2.54c2-7.49,13.95-15,33.09-15,19,0,31.05,5.07,35.37,7.25l6.41,3.23,3.48-4.63,14.38-19.14,6.07-8.11-11.3-5.3c-13.48-6.33-32.56-10-52.34-10M1026.24,64c-12.42-14.53-33.65-21.61-64.91-21.61-26,0-52.88,4.88-73.71,13.38l-5,2L884,63.66,887.92,81l2.76,12.25L901.18,89c15.72-6.4,35.72-10.22,53.48-10.22,18.85,0,24.77,4.55,26.45,6.5,2.2,2.6,2.7,7.19,1.43,13.06-79.83.58-129.08,21.31-138.83,58.53a36.78,36.78,0,0,0,7.92,34c7.68,9,23.36,19.72,54.42,19.72,20.34,0,40.62-4.75,57.18-13.09,0,0-.14,9.39,15.41,9.39a9,9,0,0,1,3.53.41h32.43l0-6.49c0-8.1,1.88-19.17,5.48-32.9l14.2-54.12c5.38-20.48,2.65-37.22-8.08-49.81m-55.41,82.37a20.31,20.31,0,0,1-3.3,6.2c-7.46,10-25.19,21.69-50.57,21.69-10.11,0-15.81-2.5-17.63-4.64s-1.05-6.51-.59-8.26c4.55-17.33,30.59-26.92,75.46-27.88ZM784.14,106.77c-20-5.76-24.23-8.83-25-10.14a5.06,5.06,0,0,1,.24-2.54c2-7.49,14-15,33.09-15,18.93,0,31,5.07,35.35,7.25l6.42,3.23,3.48-4.63,14.36-19.14,6.07-8.11-11.29-5.31c-13.48-6.32-32.54-9.94-52.33-9.94-44.81,0-81.2,19.38-88.5,47.15a31.07,31.07,0,0,0,4.58,25.86c8,11.79,23.34,20.63,46.94,27,18.36,5.12,22.43,8.8,23.32,10.13.78,1.14.24,3.61,0,4.62-2,7.78-13.49,16.84-39.07,16.84-16.65,0-33.37-4.8-41.88-9.28l-6.59-3.44-3.53,4.84-14.59,20-5.91,8.14,11.22,5.22c15.19,7.07,36.78,11.14,59.19,11.14,50.64,0,87-18.54,94.76-48.37,2.8-10.6,1.38-20.27-4.22-28.7-7.54-11.38-22.16-19.9-46.06-26.79" transform="translate(0.17 -8.35)" style="fill: #fff"/>
      <path d="M207.41,67.22c-6.23-6-17.63-12.56-37.56-12-39.45,1.08-66,25.08-80.93,47.05,0,0-11.46,14.33-23.23,5.09-11.18-8.76-10.36-24.63.46-38.64,10-13,55.11-53.85,117.63-31.94A110.12,110.12,0,0,0,16.05,176c6.47,5.44,17.21,10.67,34.57,10.71,39.46.1,66.68-23.09,82.29-44.61,0,0,11.9-14,23.39-4.39,10.9,9.09,9.62,24.93-1.62,38.6-9.84,12-51.88,48.06-108.77,31.71A110.1,110.1,0,0,0,207.41,67.22" transform="translate(0.17 -8.35)" style="fill: #fff"/>
    </g>
    <g>
      <path d="M269.66,289.09q-2.07,7-7,10.15a21.84,21.84,0,0,1-12.11,3.18,19.71,19.71,0,0,1-6.94-1.18,15.67,15.67,0,0,1-5.48-3.45,16.2,16.2,0,0,1-3.6-5.45,18.92,18.92,0,0,1-1.3-7.24,28.16,28.16,0,0,1,1.45-9,24.63,24.63,0,0,1,4.26-7.82,21.32,21.32,0,0,1,6.89-5.56,20.35,20.35,0,0,1,9.39-2.1,18.18,18.18,0,0,1,8.58,1.76,14.22,14.22,0,0,1,5.14,4.44,15.82,15.82,0,0,1,2.49,5.9,31.31,31.31,0,0,1,.65,6.14,22.18,22.18,0,0,1-.15,2.68c-.1.82-.21,1.56-.31,2.22h-29.5q-.08.39-.12.69c0,.2,0,.41,0,.61v1.23a9.84,9.84,0,0,0,2.19,6.67c1.45,1.68,3.87,2.52,7.24,2.52a11,11,0,0,0,6.05-1.6,8.13,8.13,0,0,0,3.45-4.83Zm-6.36-11a3.36,3.36,0,0,0,.07-.65v-1.8a7.89,7.89,0,0,0-2.22-5.78,8.18,8.18,0,0,0-6.13-2.26,10.53,10.53,0,0,0-7.82,2.94,17.25,17.25,0,0,0-4.21,7.55Z" transform="translate(0.17 -8.35)" style="fill: #fff"/>
      <path d="M276.4,276.37h22.69l-1.61,8.27H274.79Z" transform="translate(0.17 -8.35)" style="fill: #fff"/>
      <path d="M344.84,264.87q0-5.75-3.18-8.73t-9.16-3a16.11,16.11,0,0,0-8.55,2.22,19.41,19.41,0,0,0-6.05,5.82,27.32,27.32,0,0,0-3.64,8.13,34.53,34.53,0,0,0-1.23,9.11q0,7.67,3.91,12t11.12,4.37a12.55,12.55,0,0,0,6.2-1.42,14.27,14.27,0,0,0,4.18-3.45,16.73,16.73,0,0,0,2.53-4.18,33.12,33.12,0,0,0,1.26-3.52h9.58a29.93,29.93,0,0,1-3.45,9,23.18,23.18,0,0,1-5.48,6.36,22,22,0,0,1-7.05,3.76,26.8,26.8,0,0,1-8.08,1.22,27.37,27.37,0,0,1-10.42-1.84,21.29,21.29,0,0,1-7.59-5.06,21.74,21.74,0,0,1-4.68-7.58,27.14,27.14,0,0,1-1.61-9.43,39.47,39.47,0,0,1,2.57-14.9,30.35,30.35,0,0,1,6.75-10.43,27.06,27.06,0,0,1,9.42-6.09,29.9,29.9,0,0,1,10.62-2,28.87,28.87,0,0,1,8.88,1.3,19.89,19.89,0,0,1,6.94,3.76,16,16,0,0,1,4.41,6.13,19.88,19.88,0,0,1,1.38,8.35Z" transform="translate(0.17 -8.35)" style="fill: #fff"/>
      <path d="M372.73,302.42q-8.28,0-12.8-4.48t-4.52-12.84a27,27,0,0,1,1.61-9.31,24.3,24.3,0,0,1,4.56-7.78,22,22,0,0,1,7.13-5.36,21.32,21.32,0,0,1,9.31-2q8.28,0,12.8,4.33t4.52,12.68a30.16,30.16,0,0,1-1.53,9.73,22.83,22.83,0,0,1-4.49,7.86,21.21,21.21,0,0,1-7.12,5.25A22.59,22.59,0,0,1,372.73,302.42Zm4.75-34.86a10.22,10.22,0,0,0-5.86,1.68,15.11,15.11,0,0,0-4.18,4.25A19.16,19.16,0,0,0,365,279.2a25,25,0,0,0-.8,6.13,11.81,11.81,0,0,0,2.18,7.28q2.19,2.91,6.94,2.91a10.35,10.35,0,0,0,5.86-1.64,14.62,14.62,0,0,0,4.18-4.22,19,19,0,0,0,2.49-5.75,24.82,24.82,0,0,0,.8-6.16,11.8,11.8,0,0,0-2.18-7.29C383,268.52,380.65,267.56,377.48,267.56Z" transform="translate(0.17 -8.35)" style="fill: #fff"/>
      <path d="M405.76,261.73H414l-1.15,5.59.15.16a17.53,17.53,0,0,1,5.94-5,16.38,16.38,0,0,1,7.63-1.8,12.74,12.74,0,0,1,6.43,1.57,7.75,7.75,0,0,1,3.6,5.48,25.46,25.46,0,0,1,6-5.06,14.09,14.09,0,0,1,7.44-2q5.74,0,8.5,2.83a10.51,10.51,0,0,1,2.76,7.67,17.7,17.7,0,0,1-.19,2.45c-.13.91-.27,1.74-.42,2.45l-5.06,25.29h-8.74l4.91-23.45c.1-.46.24-1.11.42-2a18.53,18.53,0,0,0,.35-2.71,11.1,11.1,0,0,0-.2-2,4.3,4.3,0,0,0-.8-1.84,4.42,4.42,0,0,0-1.69-1.3,6.59,6.59,0,0,0-2.76-.49,9.43,9.43,0,0,0-4.48,1,12.24,12.24,0,0,0-3.37,2.6,14,14,0,0,0-2.3,3.45,14.66,14.66,0,0,0-1.19,3.57L431,301.35h-8.73l4.52-21.77c.2-1,.45-2.16.73-3.44a17.25,17.25,0,0,0,.42-3.68,5.8,5.8,0,0,0-1-3.45c-.69-1-1.95-1.45-3.79-1.45a9.32,9.32,0,0,0-4.33.92,12.12,12.12,0,0,0-3.1,2.21A22.65,22.65,0,0,0,413,274a12.62,12.62,0,0,0-1.92,4.4l-4.75,22.92h-8.74Z" transform="translate(0.17 -8.35)" style="fill: #fff"/>
      <path d="M472,261.73h8.28l-1.15,5.59.15.16a17.53,17.53,0,0,1,5.94-5,16.41,16.41,0,0,1,7.63-1.8,12.71,12.71,0,0,1,6.43,1.57,7.73,7.73,0,0,1,3.61,5.48,25.22,25.22,0,0,1,6-5.06,14.09,14.09,0,0,1,7.44-2c3.83,0,6.67.94,8.5,2.83a10.51,10.51,0,0,1,2.76,7.67,17.7,17.7,0,0,1-.19,2.45c-.13.91-.27,1.74-.42,2.45l-5.06,25.29h-8.73L518,277.9l.42-2a17.26,17.26,0,0,0,.35-2.71,12,12,0,0,0-.19-2,4.31,4.31,0,0,0-.81-1.84,4.46,4.46,0,0,0-1.68-1.3,6.66,6.66,0,0,0-2.76-.49,9.47,9.47,0,0,0-4.49,1,12.39,12.39,0,0,0-3.37,2.6,14.33,14.33,0,0,0-2.3,3.45,14.66,14.66,0,0,0-1.19,3.57l-4.82,23.14h-8.74L493,279.58c.21-1,.45-2.16.73-3.44a17.25,17.25,0,0,0,.42-3.68,5.79,5.79,0,0,0-1-3.45c-.69-1-2-1.45-3.8-1.45a9.35,9.35,0,0,0-4.33.92,12.29,12.29,0,0,0-3.1,2.21,23.32,23.32,0,0,0-2.68,3.34,12.81,12.81,0,0,0-1.92,4.4l-4.75,22.92h-8.74Z" transform="translate(0.17 -8.35)" style="fill: #fff"/>
      <path d="M567.61,289.09q-2.07,7-7,10.15a21.82,21.82,0,0,1-12.11,3.18,19.7,19.7,0,0,1-6.93-1.18,15.58,15.58,0,0,1-5.48-3.45,15.9,15.9,0,0,1-3.6-5.45,18.73,18.73,0,0,1-1.31-7.24,28.17,28.17,0,0,1,1.46-9,24.8,24.8,0,0,1,4.25-7.82,21.36,21.36,0,0,1,6.9-5.56,20.29,20.29,0,0,1,9.39-2.1,18.24,18.24,0,0,1,8.58,1.76,14.1,14.1,0,0,1,5.13,4.44,15.82,15.82,0,0,1,2.49,5.9,30.6,30.6,0,0,1,.66,6.14,22.08,22.08,0,0,1-.16,2.68q-.15,1.23-.3,2.22H540.1c-.05.26-.09.49-.11.69a4.17,4.17,0,0,0,0,.61v1.23a9.88,9.88,0,0,0,2.18,6.67q2.19,2.52,7.24,2.52a11.09,11.09,0,0,0,6.06-1.6,8.21,8.21,0,0,0,3.45-4.83Zm-6.36-11a3.46,3.46,0,0,0,.08-.65v-1.8a7.89,7.89,0,0,0-2.22-5.78,8.21,8.21,0,0,0-6.13-2.26,10.51,10.51,0,0,0-7.82,2.94,17.26,17.26,0,0,0-4.22,7.55Z" transform="translate(0.17 -8.35)" style="fill: #fff"/>
      <path d="M578.42,261.73h8.28l-1.61,7.74.15.15a23.11,23.11,0,0,1,2.26-3.22,19.5,19.5,0,0,1,3-2.87,15.53,15.53,0,0,1,3.49-2.07,9.82,9.82,0,0,1,3.95-.8q1.07,0,2.1,0a19.5,19.5,0,0,1,2.11.2l-1.84,8.35c-.51-.1-1-.18-1.53-.23s-1-.08-1.53-.08a13.54,13.54,0,0,0-5.87,1.19,12.28,12.28,0,0,0-4.21,3.26,17.62,17.62,0,0,0-2.8,4.75,33,33,0,0,0-1.69,5.67L579,301.35h-8.74Z" transform="translate(0.17 -8.35)" style="fill: #fff"/>
      <path d="M628.08,274.83c.1-2.45-.56-4.27-2-5.48a8.79,8.79,0,0,0-5.83-1.79,9.93,9.93,0,0,0-5.75,1.68,14.12,14.12,0,0,0-4.06,4.29,20.88,20.88,0,0,0-2.41,5.71,23.53,23.53,0,0,0-.81,5.94,17.56,17.56,0,0,0,.46,4.1,9,9,0,0,0,1.5,3.26,7.19,7.19,0,0,0,2.72,2.18,9.49,9.49,0,0,0,4.14.8,9.68,9.68,0,0,0,6.4-2.06,11.49,11.49,0,0,0,3.56-5.75h8.74q-2.16,7.67-7.21,11.19t-12.95,3.52a18.23,18.23,0,0,1-6.9-1.22,13.62,13.62,0,0,1-5-3.49,15.67,15.67,0,0,1-3.1-5.37,20.72,20.72,0,0,1-1.07-6.85A29.52,29.52,0,0,1,600,276a23.81,23.81,0,0,1,4.45-7.93,21.26,21.26,0,0,1,7.08-5.4,21.72,21.72,0,0,1,9.47-2,20.26,20.26,0,0,1,6.2.92,14.93,14.93,0,0,1,5.06,2.68,12.38,12.38,0,0,1,3.38,4.44,13.84,13.84,0,0,1,1.14,6.13Z" transform="translate(0.17 -8.35)" style="fill: #fff"/>
      <path d="M675.44,289.09q-2.07,7-7,10.15a21.82,21.82,0,0,1-12.11,3.18,19.71,19.71,0,0,1-6.94-1.18,15.58,15.58,0,0,1-5.48-3.45,16.2,16.2,0,0,1-3.6-5.45,18.92,18.92,0,0,1-1.3-7.24,28.16,28.16,0,0,1,1.45-9,24.63,24.63,0,0,1,4.26-7.82,21.32,21.32,0,0,1,6.89-5.56,20.35,20.35,0,0,1,9.39-2.1,18.25,18.25,0,0,1,8.59,1.76,14.27,14.27,0,0,1,5.13,4.44,15.82,15.82,0,0,1,2.49,5.9,31.31,31.31,0,0,1,.65,6.14,22.18,22.18,0,0,1-.15,2.68c-.1.82-.21,1.56-.31,2.22h-29.5q-.07.39-.12.69c0,.2,0,.41,0,.61v1.23A9.84,9.84,0,0,0,650,293c1.45,1.68,3.87,2.52,7.24,2.52a11.09,11.09,0,0,0,6.06-1.6,8.16,8.16,0,0,0,3.44-4.83Zm-6.36-11a3.46,3.46,0,0,0,.08-.65v-1.8a7.89,7.89,0,0,0-2.23-5.78,8.18,8.18,0,0,0-6.13-2.26A10.49,10.49,0,0,0,653,270.5a17.17,17.17,0,0,0-4.22,7.55Z" transform="translate(0.17 -8.35)" style="fill: #fff"/>
    </g>
  </g>
</svg>
