<svg xmlns="http://www.w3.org/2000/svg" viewBox="0 0 1036.73 308.58">
  <g>
    <path d="M412.71,88.24h20.47l-30.75,111H455.8L499.25,38.55H453.17c-.15.47-.28,1-.45,1.44-6.21,17.29-20.84,29.65-35.44,31.3Z" transform="translate(-0.14 -1.21)" style="fill: #fff"/>
    <path d="M792.42,71.89c18.92,0,31,5.07,35.33,7.25l6.42,3.23,3.48-4.63L852,58.61l6.07-8.11-11.29-5.3c-13.47-6.33-32.53-9.94-52.3-9.94-44.8,0-81.17,19.37-88.46,47.13a31.06,31.06,0,0,0,4.57,25.85c8,11.78,23.33,20.62,46.92,27,18.36,5.12,22.43,8.8,23.31,10.13.78,1.14.24,3.61,0,4.62-2,7.78-13.5,16.83-39.06,16.83-16.64,0-33.36-4.8-41.86-9.27l-6.59-3.44-3.52,4.84-14.59,20-5.91,8.13,11.22,5.22c15.18,7.07,36.76,11.14,59.17,11.14,50.61,0,86.9-18.54,94.71-48.35,2.8-10.59,1.38-20.26-4.22-28.69-7.53-11.37-22.15-19.89-46-26.78-20-5.75-24.22-8.82-25-10.13a5.23,5.23,0,0,1,.24-2.54C761.3,79.43,773.3,71.89,792.42,71.89Z" transform="translate(-0.14 -1.21)" style="fill: #fff"/>
    <path d="M1026.11,56.86c-12.42-14.53-33.64-21.6-64.88-21.6-26,0-52.86,4.87-73.69,13.37l-5,2,1.32,5.82,4,17.34,2.76,12.24,10.49-4.26c15.72-6.4,35.71-10.22,53.46-10.22,18.84,0,24.76,4.55,26.44,6.5,2.2,2.59,2.7,7.19,1.43,13.06-79.8.58-129,21.29-138.77,58.49a36.76,36.76,0,0,0,7.92,34c7.67,9,23.34,19.71,54.39,19.71,20.33,0,40.6-4.76,57.15-13.09,0,0-.13,9.39,15.41,9.39a9.3,9.3,0,0,1,3.53.4h32.41l0-6.48c0-8.1,1.87-19.16,5.47-32.89l14.2-54.09C1039.56,86.17,1036.84,69.44,1026.11,56.86Zm-55.39,82.33a20.48,20.48,0,0,1-3.29,6.2c-7.46,10-25.19,21.68-50.55,21.68-10.11,0-15.81-2.5-17.63-4.64s-1-6.51-.59-8.25c4.55-17.33,30.58-26.91,75.43-27.87Z" transform="translate(-0.14 -1.21)" style="fill: #fff"/>
    <path d="M300.49,203.41c50.61,0,86.9-18.52,94.71-48.35,2.79-10.59,1.38-20.26-4.22-28.69-7.52-11.36-22.16-19.88-46.05-26.78-19.93-5.75-24.21-8.82-25-10.13a5.19,5.19,0,0,1,.25-2.54c2-7.49,13.94-15,33.06-15,18.95,0,31,5.07,35.36,7.25l6.4,3.23,3.49-4.63,14.37-19.13,6.07-8.1-11.3-5.31c-13.47-6.33-32.54-9.94-52.31-9.94-44.81,0-81.19,19.38-88.46,47.13a31.1,31.1,0,0,0,4.55,25.84c8,11.79,23.34,20.63,46.94,27,18.36,5.12,22.42,8.79,23.32,10.13.76,1.14.23,3.62,0,4.62-2.05,7.76-13.5,16.83-39.08,16.83-16.61,0-33.32-4.8-41.84-9.27l-6.58-3.44-3.53,4.84-14.58,20-5.92,8.13,11.23,5.22C256.52,199.35,278.09,203.41,300.49,203.41Z" transform="translate(-0.14 -1.21)" style="fill: #fff"/>
    <path d="M654.92,168.17l-1-12.74-11.73,3.24c-13.52,3.74-29.76,7.21-56.76,7.21-20.31,0-36-4.66-43.05-12.78-4.33-5-5.88-11.88-4.66-20.55H681l1.61-3.8.5-1.17a83.24,83.24,0,0,0,4.28-12c2.61-9.94,6.75-35.34-11-56.17-13.7-16-36-24.17-66.38-24.17-59.78,0-110.48,34-123.24,82.7-7.31,27.8,1.95,46.27,11,56.86,16,18.71,44,28.59,81.18,28.59,33.28,0,58-5.22,72.9-9.58l4.92-1.45-.4-5.38ZM606,71c13.55,0,23.12,2.89,27.68,8.33,3.86,4.58,4.41,11.45,3.48,17.52h-85.5C561.73,84.12,579.57,71,606,71Z" transform="translate(-0.14 -1.21)" style="fill: #fff"/>
    <path d="M170.09,48.06c-39.44,1.07-65.94,25.06-80.9,47,0,0-11.45,14.32-23.22,5.09-11.17-8.75-10.35-24.62.46-38.62,10-13,55.09-53.83,117.58-31.93A110.07,110.07,0,0,0,16.35,168.78c6.47,5.44,17.2,10.66,34.56,10.71,39.44.09,66.65-23.09,82.26-44.59,0,0,11.88-14,23.37-4.39,10.9,9.08,9.62,24.92-1.62,38.58-9.84,12-51.85,48-108.72,31.7A110.06,110.06,0,0,0,207.63,60.05C201.41,54,190,47.5,170.09,48.06Z" transform="translate(-0.14 -1.21)" style="fill: #fff"/>
    <polygon points="241.68 238.18 230.26 292.88 239.84 292.88 251.25 238.18 241.68 238.18" style="fill: #fff"/>
    <path d="M277.51,253.41a16.5,16.5,0,0,0-7.7,1.84,16.72,16.72,0,0,0-5.93,5.13l-.16-.15,1.23-5.75h-8.2l-8.2,39.61h8.74l4.44-21.45a20.58,20.58,0,0,1,1.65-4.71,14,14,0,0,1,2.64-3.79,15.73,15.73,0,0,1,3.64-2.72,9.49,9.49,0,0,1,4.63-1.11,7.71,7.71,0,0,1,3.64.69,4.17,4.17,0,0,1,2.38,3.56c0,.64,0,1.11,0,1.41a8.58,8.58,0,0,1-.2,1.77c-.12.61-.26,1.25-.42,1.91l-5.05,24.44h8.73l5.29-25.28a16.41,16.41,0,0,0,.3-2.45c.05-.92.08-1.74.08-2.45a10.39,10.39,0,0,0-2.8-7.66C284.42,254.36,281.49,253.41,277.51,253.41Z" transform="translate(-0.14 -1.21)" style="fill: #fff"/>
    <path d="M306.7,287.58c-1.33,0-2.19-.27-2.57-.81a3.55,3.55,0,0,1-.58-2.1,10,10,0,0,1,.23-1.84c.16-.77.34-1.59.54-2.45L308.38,261h7.89l1.38-6.52h-7.89l2.45-11.87h-8.5l-2.45,11.87h-6.9L293,261h6.9l-4.52,21.67a17.1,17.1,0,0,0-.35,1.92,19.77,19.77,0,0,0-.19,2.53,11,11,0,0,0,.35,2.72,5.83,5.83,0,0,0,1.22,2.37,6,6,0,0,0,2.42,1.65,10.57,10.57,0,0,0,3.9.61,30.81,30.81,0,0,0,3.6-.23,35.45,35.45,0,0,0,3.6-.61l1.46-6.44a12.63,12.63,0,0,1-2.49.35C308.09,287.56,307.36,287.58,306.7,287.58Z" transform="translate(-0.14 -1.21)" style="fill: #fff"/>
    <path d="M351.58,259.62a14.13,14.13,0,0,0-5.13-4.45,18.18,18.18,0,0,0-8.58-1.76,20.16,20.16,0,0,0-9.38,2.11,21.3,21.3,0,0,0-6.9,5.55,24.69,24.69,0,0,0-4.25,7.82,28.12,28.12,0,0,0-1.45,9,18.92,18.92,0,0,0,1.3,7.24,16.15,16.15,0,0,0,3.6,5.44,15.42,15.42,0,0,0,5.48,3.44,19.7,19.7,0,0,0,6.93,1.19A21.78,21.78,0,0,0,345.3,292q4.9-3.18,7-10.15h-8.73a8.13,8.13,0,0,1-3.45,4.83,11,11,0,0,1-6,1.6q-5.06,0-7.24-2.52a9.88,9.88,0,0,1-2.18-6.67v-1.22a4.08,4.08,0,0,1,0-.61,7,7,0,0,1,.11-.69h29.5c.1-.67.2-1.41.3-2.23a22.06,22.06,0,0,0,.15-2.68,30.54,30.54,0,0,0-.65-6.13A15.71,15.71,0,0,0,351.58,259.62ZM346,269.57v.58a3.44,3.44,0,0,1-.07.65h-20.3a17.15,17.15,0,0,1,4.21-7.55,10.49,10.49,0,0,1,7.81-2.94,8.22,8.22,0,0,1,6.13,2.25,7.93,7.93,0,0,1,2.22,5.79Z" transform="translate(-0.14 -1.21)" style="fill: #fff"/>
    <polygon points="366.08 238.18 354.74 292.88 363.47 292.88 374.81 238.18 366.08 238.18" style="fill: #fff"/>
    <polygon points="382.63 238.18 371.29 292.88 380.02 292.88 391.36 238.18 382.63 238.18" style="fill: #fff"/>
    <polygon points="397.49 246.46 406.14 246.46 407.83 238.18 399.17 238.18 397.49 246.46" style="fill: #fff"/>
    <polygon points="396.03 253.27 387.83 292.88 396.57 292.88 404.76 253.27 396.03 253.27" style="fill: #fff"/>
    <path d="M439.75,261.07h-.15a11,11,0,0,0-4.75-5.9,15.16,15.16,0,0,0-7.51-1.76,17.74,17.74,0,0,0-8.81,2.15,20.12,20.12,0,0,0-6.39,5.59,25.33,25.33,0,0,0-3.91,7.85,30.41,30.41,0,0,0-1.34,8.85q0,7.57,4,11.91t11.42,4.33a12.94,12.94,0,0,0,11.18-6l.15.15-.84,3.91a39.38,39.38,0,0,1-1.22,4.48,10.15,10.15,0,0,1-2,3.49,8.93,8.93,0,0,1-3.18,2.3,12,12,0,0,1-4.82.84,13.18,13.18,0,0,1-6.32-1.38,5.23,5.23,0,0,1-2.72-4.75h-8.73a12,12,0,0,0,1.49,5.86,11.41,11.41,0,0,0,3.75,3.91,17,17,0,0,0,5.37,2.18,28.58,28.58,0,0,0,6.39.69,30.53,30.53,0,0,0,8-.92,14.54,14.54,0,0,0,5.67-2.91,15.16,15.16,0,0,0,3.83-5.21,38.31,38.31,0,0,0,2.49-7.74l8.35-38.53H440.9Zm-3.4,14.71a18.33,18.33,0,0,1-2.34,5.67,13.46,13.46,0,0,1-4.1,4.13,10.77,10.77,0,0,1-6,1.61,8.54,8.54,0,0,1-3.79-.76,6.91,6.91,0,0,1-2.57-2.11,8.82,8.82,0,0,1-1.46-3.14,15.55,15.55,0,0,1-.46-3.79,23.37,23.37,0,0,1,.77-5.71,19.32,19.32,0,0,1,2.34-5.55,13.94,13.94,0,0,1,3.94-4.18,9.62,9.62,0,0,1,5.59-1.64q4.37,0,6.59,2.48a10,10,0,0,1,2.22,6.86A27.38,27.38,0,0,1,436.35,275.78Z" transform="translate(-0.14 -1.21)" style="fill: #fff"/>
    <path d="M485.41,259.62a14.29,14.29,0,0,0-5.13-4.45,18.24,18.24,0,0,0-8.58-1.76,20.17,20.17,0,0,0-9.39,2.11,21.16,21.16,0,0,0-6.89,5.55,24.5,24.5,0,0,0-4.25,7.82,27.85,27.85,0,0,0-1.46,9,18.92,18.92,0,0,0,1.3,7.24,16.15,16.15,0,0,0,3.6,5.44,15.51,15.51,0,0,0,5.48,3.44,19.7,19.7,0,0,0,6.93,1.19A21.82,21.82,0,0,0,479.13,292q4.89-3.18,7-10.15h-8.74a8.16,8.16,0,0,1-3.44,4.83,11.08,11.08,0,0,1-6.05,1.6q-5.07,0-7.24-2.52a9.84,9.84,0,0,1-2.19-6.67v-1.22a4.08,4.08,0,0,1,0-.61c0-.21.06-.44.12-.69h29.49c.1-.67.2-1.41.31-2.23a22.06,22.06,0,0,0,.15-2.68,31.29,31.29,0,0,0-.65-6.13A16,16,0,0,0,485.41,259.62Zm-5.59,9.95v.58a3.56,3.56,0,0,1-.08.65h-20.3a17.25,17.25,0,0,1,4.21-7.55,10.51,10.51,0,0,1,7.82-2.94,8.21,8.21,0,0,1,6.12,2.25,7.93,7.93,0,0,1,2.23,5.79Z" transform="translate(-0.14 -1.21)" style="fill: #fff"/>
    <path d="M517.66,253.41a16.47,16.47,0,0,0-7.7,1.84,16.67,16.67,0,0,0-5.94,5.13l-.15-.15,1.22-5.75H496.9l-8.2,39.61h8.73l4.45-21.45a20.09,20.09,0,0,1,1.64-4.71,14,14,0,0,1,2.65-3.79,15.52,15.52,0,0,1,3.64-2.72,9.47,9.47,0,0,1,4.63-1.11,7.74,7.74,0,0,1,3.64.69,4.33,4.33,0,0,1,1.8,1.64,4.28,4.28,0,0,1,.57,1.92c0,.64,0,1.11,0,1.41a8.54,8.54,0,0,1-.19,1.77c-.13.61-.27,1.25-.42,1.91l-5.06,24.44h8.73l5.29-25.28a15.12,15.12,0,0,0,.31-2.45c.05-.92.07-1.74.07-2.45a10.42,10.42,0,0,0-2.79-7.66Q523.63,253.42,517.66,253.41Z" transform="translate(-0.14 -1.21)" style="fill: #fff"/>
    <path d="M544.54,266.28A14.24,14.24,0,0,1,548.6,262a9.93,9.93,0,0,1,5.75-1.68,8.77,8.77,0,0,1,5.82,1.8q2.15,1.8,2,5.47h8.73a13.84,13.84,0,0,0-1.14-6.13,12.38,12.38,0,0,0-3.38-4.44,14.88,14.88,0,0,0-5-2.68,20.59,20.59,0,0,0-6.21-.92,21.7,21.7,0,0,0-9.46,2,21.26,21.26,0,0,0-7.08,5.4,24.16,24.16,0,0,0-4.45,7.93,29.46,29.46,0,0,0-1.53,9.5,20.78,20.78,0,0,0,1.08,6.86,15.56,15.56,0,0,0,3.1,5.36,13.33,13.33,0,0,0,5,3.48,18,18,0,0,0,6.89,1.23q7.89,0,13-3.52t7.2-11.19h-8.74a11.36,11.36,0,0,1-3.56,5.75,9.67,9.67,0,0,1-6.4,2.06,9.48,9.48,0,0,1-4.13-.8,7.27,7.27,0,0,1-2.72-2.18,8.79,8.79,0,0,1-1.49-3.26,17,17,0,0,1-.46-4.1,23.48,23.48,0,0,1,.8-5.93A20.88,20.88,0,0,1,544.54,266.28Z" transform="translate(-0.14 -1.21)" style="fill: #fff"/>
    <path d="M608.81,259.62a14.13,14.13,0,0,0-5.13-4.45,18.21,18.21,0,0,0-8.58-1.76,20.16,20.16,0,0,0-9.38,2.11,21.2,21.2,0,0,0-6.9,5.55,24.69,24.69,0,0,0-4.25,7.82,28.12,28.12,0,0,0-1.45,9,18.92,18.92,0,0,0,1.3,7.24,16.15,16.15,0,0,0,3.6,5.44A15.42,15.42,0,0,0,583.5,294a19.7,19.7,0,0,0,6.93,1.19,21.78,21.78,0,0,0,12.1-3.18q4.9-3.18,7-10.15h-8.73a8.13,8.13,0,0,1-3.45,4.83,11,11,0,0,1-6.05,1.6q-5.06,0-7.24-2.52a9.88,9.88,0,0,1-2.18-6.67v-1.22a4.08,4.08,0,0,1,0-.61,7,7,0,0,1,.11-.69h29.49c.11-.67.21-1.41.31-2.23a22.06,22.06,0,0,0,.15-2.68,30.54,30.54,0,0,0-.65-6.13A15.71,15.71,0,0,0,608.81,259.62Zm-5.59,9.95v.58a2.85,2.85,0,0,1-.08.65h-20.3a17.26,17.26,0,0,1,4.22-7.55,10.49,10.49,0,0,1,7.81-2.94,8.22,8.22,0,0,1,6.13,2.25,7.93,7.93,0,0,1,2.22,5.79Z" transform="translate(-0.14 -1.21)" style="fill: #fff"/>
  </g>
</svg>
