<svg xmlns="http://www.w3.org/2000/svg" viewBox="0 0 1036.56 294.13">
  <g>
    <g>
      <g>
        <path d="M453.18,45.77c-.15.47-.28,1-.45,1.44-6.21,17.29-20.84,29.65-35.44,31.29l-4.56,17H433.2L402.45,206.38h53.36L499.25,45.77Z" transform="translate(-0.22 -8.43)" style="fill: #fff"/>
        <path d="M585.45,173.07c-20.31,0-36-4.65-43.05-12.77-4.32-5-5.88-11.88-4.66-20.55H681l1.61-3.8.5-1.17a82.61,82.61,0,0,0,4.29-12c2.6-9.94,6.74-35.33-11-56.15-13.69-16.05-36-24.17-66.36-24.17-59.78,0-110.47,34-123.22,82.69-7.31,27.79,1.95,46.26,11,56.84,16,18.71,44,28.59,81.17,28.59,33.28,0,58-5.22,72.89-9.58l4.92-1.44-.4-5.38-1.43-18.84-1-12.74-11.73,3.25c-13.52,3.74-29.76,7.2-56.75,7.2M606,78.2c13.54,0,23.11,2.89,27.67,8.32,3.86,4.59,4.41,11.45,3.48,17.52H551.66C561.72,91.33,579.56,78.2,606,78.2M355.34,42.48c-44.79,0-81.17,19.38-88.44,47.12a31.08,31.08,0,0,0,4.55,25.83c8,11.8,23.34,20.64,46.93,27,18.36,5.12,22.42,8.79,23.31,10.13.77,1.14.24,3.62,0,4.62-2.05,7.76-13.5,16.83-39.07,16.83-16.61,0-33.32-4.81-41.84-9.27l-6.58-3.44-3.53,4.84-14.58,20-5.92,8.13,11.23,5.22c15.19,7.07,36.76,11.13,59.16,11.13,50.6,0,86.88-18.52,94.69-48.34C398,151.67,396.59,142,391,133.57c-7.51-11.35-22.15-19.87-46-26.77C325,101.05,320.75,98,320,96.67a5.07,5.07,0,0,1,.24-2.54c2-7.49,13.94-15,33.06-15,19,0,31,5.07,35.35,7.25l6.4,3.23L398.51,85l14.36-19.13,6.08-8.1-11.3-5.3c-13.47-6.33-32.54-9.94-52.31-9.94M1026,64.07c-12.41-14.52-33.62-21.59-64.87-21.59-26,0-52.84,4.87-73.67,13.37l-5,2,1.32,5.83,3.95,17.33,2.76,12.24L901,89c15.72-6.4,35.71-10.22,53.46-10.22,18.83,0,24.76,4.55,26.43,6.5,2.2,2.59,2.7,7.19,1.43,13.06-79.78.58-129,21.29-138.74,58.48a36.75,36.75,0,0,0,7.91,34c7.68,9,23.34,19.71,54.39,19.71,20.33,0,40.59-4.75,57.14-13.09,0,0-.13,9.39,15.41,9.39a9.08,9.08,0,0,1,3.53.41h32.4l.05-6.49c0-8.09,1.87-19.15,5.47-32.88l14.19-54.08c5.37-20.48,2.65-37.2-8.08-49.79m-55.38,82.32a20,20,0,0,1-3.29,6.2c-7.45,10-25.18,21.68-50.54,21.68-10.1,0-15.8-2.5-17.62-4.64s-1.05-6.51-.59-8.25c4.55-17.33,30.57-26.91,75.42-27.87ZM784.06,106.8c-19.94-5.75-24.21-8.82-25-10.13a5.23,5.23,0,0,1,.24-2.54c2-7.49,14-15,33.07-15,18.92,0,31,5.07,35.33,7.25l6.42,3.23L837.6,85,852,65.82l6.06-8.1-11.28-5.31c-13.47-6.32-32.52-9.93-52.3-9.93-44.79,0-81.15,19.37-88.44,47.12a31.06,31.06,0,0,0,4.57,25.85c8,11.78,23.33,20.62,46.92,26.94,18.35,5.12,22.42,8.8,23.3,10.13.78,1.14.24,3.61,0,4.62-2,7.78-13.5,16.83-39.06,16.83-16.63,0-33.35-4.8-41.85-9.27l-6.58-3.45-3.53,4.85-14.58,20-5.91,8.12,11.21,5.22c15.18,7.07,36.76,11.14,59.16,11.14,50.6,0,86.89-18.53,94.7-48.34,2.8-10.59,1.38-20.26-4.22-28.69-7.53-11.37-22.15-19.88-46-26.77" transform="translate(-0.22 -8.43)" style="fill: #fff"/>
        <path d="M207.68,67.27c-6.22-6-17.62-12.55-37.53-12-39.44,1.08-65.94,25.06-80.89,47,0,0-11.45,14.32-23.22,5.09-11.17-8.75-10.35-24.62.46-38.62,10-13,55.09-53.82,117.56-31.92A110.05,110.05,0,0,0,16.43,176c6.47,5.44,17.2,10.66,34.56,10.71,39.43.09,66.63-23.09,82.24-44.59,0,0,11.88-14,23.37-4.39,10.9,9.08,9.62,24.91-1.62,38.58-9.84,12-51.84,48-108.71,31.69A110,110,0,0,0,207.68,67.27" transform="translate(-0.22 -8.43)" style="fill: #fff"/>
      </g>
      <g>
        <path d="M241.78,246.58h22a25.1,25.1,0,0,1,7.2.88,16,16,0,0,1,4.83,2.29,10.76,10.76,0,0,1,2.95,3.22,14.41,14.41,0,0,1,1.49,3.64,17.73,17.73,0,0,1,.54,3.6c.05,1.17.07,2.2.07,3.06,0,.06,0,.52-.11,1.38a16.48,16.48,0,0,1-.69,3.18,20.79,20.79,0,0,1-1.8,4.06,14.91,14.91,0,0,1-3.45,4.06,18.05,18.05,0,0,1-5.63,3.1,24.83,24.83,0,0,1-8.38,1.23H244.39l-4.37,21h-9.57ZM246,272.47h14.48a12.82,12.82,0,0,0,5.32-1,8.53,8.53,0,0,0,3.3-2.49,9.46,9.46,0,0,0,1.68-3.41,14.52,14.52,0,0,0,.5-3.71,9.63,9.63,0,0,0-.34-2.46,6.44,6.44,0,0,0-1.31-2.45,6.82,6.82,0,0,0-2.75-1.87,12.67,12.67,0,0,0-4.72-.73h-12.4Z" transform="translate(-0.22 -8.43)" style="fill: #fff"/>
        <path d="M281.69,278.67a39.48,39.48,0,0,1,2.56-14.9A30.38,30.38,0,0,1,291,253.36a27.09,27.09,0,0,1,9.42-6.1,29.87,29.87,0,0,1,10.61-2,26.25,26.25,0,0,1,9.8,1.76,21.4,21.4,0,0,1,7.55,4.94,22.45,22.45,0,0,1,4.82,7.54,26.05,26.05,0,0,1,1.73,9.65,41,41,0,0,1-2.46,14.94,30,30,0,0,1-6.5,10.37,25.86,25.86,0,0,1-9.27,6.09,29.8,29.8,0,0,1-10.73,2,27.55,27.55,0,0,1-10.41-1.84,21.16,21.16,0,0,1-12.26-12.64A27.09,27.09,0,0,1,281.69,278.67Zm9.57-.31q0,7.67,3.91,12t11.1,4.36a15.36,15.36,0,0,0,8.31-2.22,19.59,19.59,0,0,0,6-5.82,26.45,26.45,0,0,0,3.6-8.12,35.33,35.33,0,0,0,1.19-9.11q0-7.67-3.71-12t-10.92-4.37a16.1,16.1,0,0,0-8.54,2.22,19.41,19.41,0,0,0-6.05,5.82,27.37,27.37,0,0,0-3.64,8.12A34.94,34.94,0,0,0,291.26,278.36Z" transform="translate(-0.22 -8.43)" style="fill: #fff"/>
        <path d="M345.71,283.19q-.3,6.36,3.14,9t9.42,2.6a19.65,19.65,0,0,0,4.1-.46,12.89,12.89,0,0,0,3.95-1.49,9.54,9.54,0,0,0,2.94-2.68,6.77,6.77,0,0,0,1.19-4.1,6.36,6.36,0,0,0-1.11-3.83,9.06,9.06,0,0,0-2.91-2.56,20,20,0,0,0-4.17-1.76q-2.38-.74-4.9-1.42c-1.23-.31-2.69-.73-4.37-1.27a19.39,19.39,0,0,1-4.9-2.37,13.8,13.8,0,0,1-4-4.1,11.54,11.54,0,0,1-1.65-6.43,16.76,16.76,0,0,1,1.38-6.82,15.24,15.24,0,0,1,4-5.4,18.7,18.7,0,0,1,6.4-3.52,27.22,27.22,0,0,1,8.61-1.26,33.47,33.47,0,0,1,8,.92,17.57,17.57,0,0,1,6.5,3,13.83,13.83,0,0,1,4.29,5.4,17.84,17.84,0,0,1,1.38,8.16h-9.19c-.05-3.42-1-5.89-2.83-7.39s-4.62-2.26-8.35-2.26a21.56,21.56,0,0,0-2.76.23,11.57,11.57,0,0,0-3.52,1.07,8.9,8.9,0,0,0-3.06,2.41,6.58,6.58,0,0,0-1.31,4.33,5.56,5.56,0,0,0,.92,3.29,7.81,7.81,0,0,0,2.49,2.22,16.2,16.2,0,0,0,3.64,1.54c1.38.41,2.83.79,4.37,1.14q2.91.78,5.85,1.69a20.16,20.16,0,0,1,5.37,2.56,12.72,12.72,0,0,1,3.9,4.33,14.21,14.21,0,0,1,1.5,7,17.28,17.28,0,0,1-1.23,6.36,15.37,15.37,0,0,1-3.94,5.67,20.72,20.72,0,0,1-7.05,4.1,31.24,31.24,0,0,1-10.53,1.57,31.86,31.86,0,0,1-8.73-1.12,17.15,17.15,0,0,1-6.63-3.44,14.74,14.74,0,0,1-4.13-6,22.57,22.57,0,0,1-1.27-8.81Z" transform="translate(-0.22 -8.43)" style="fill: #fff"/>
      </g>
    </g>
    <g>
      <g>
        <path d="M453.18,45.77c-.15.47-.28,1-.45,1.44-6.21,17.29-20.84,29.65-35.44,31.29l-4.56,17H433.2L402.45,206.38h53.36L499.25,45.77Z" transform="translate(-0.22 -8.43)" style="fill: #fff"/>
        <path d="M585.45,173.07c-20.31,0-36-4.65-43.05-12.77-4.32-5-5.88-11.88-4.66-20.55H681l1.61-3.8.5-1.17a82.61,82.61,0,0,0,4.29-12c2.6-9.94,6.74-35.33-11-56.15-13.69-16.05-36-24.17-66.36-24.17-59.78,0-110.47,34-123.22,82.69-7.31,27.79,1.95,46.26,11,56.84,16,18.71,44,28.59,81.17,28.59,33.28,0,58-5.22,72.89-9.58l4.92-1.44-.4-5.38-1.43-18.84-1-12.74-11.73,3.25c-13.52,3.74-29.76,7.2-56.75,7.2M606,78.2c13.54,0,23.11,2.89,27.67,8.32,3.86,4.59,4.41,11.45,3.48,17.52H551.66C561.72,91.33,579.56,78.2,606,78.2M355.34,42.48c-44.79,0-81.17,19.38-88.44,47.12a31.08,31.08,0,0,0,4.55,25.83c8,11.8,23.34,20.64,46.93,27,18.36,5.12,22.42,8.79,23.31,10.13.77,1.14.24,3.62,0,4.62-2.05,7.76-13.5,16.83-39.07,16.83-16.61,0-33.32-4.81-41.84-9.27l-6.58-3.44-3.53,4.84-14.58,20-5.92,8.13,11.23,5.22c15.19,7.07,36.76,11.13,59.16,11.13,50.6,0,86.88-18.52,94.69-48.34C398,151.67,396.59,142,391,133.57c-7.51-11.35-22.15-19.87-46-26.77C325,101.05,320.75,98,320,96.67a5.07,5.07,0,0,1,.24-2.54c2-7.49,13.94-15,33.06-15,19,0,31,5.07,35.35,7.25l6.4,3.23L398.51,85l14.36-19.13,6.08-8.1-11.3-5.3c-13.47-6.33-32.54-9.94-52.31-9.94M1026,64.07c-12.41-14.52-33.62-21.59-64.87-21.59-26,0-52.84,4.87-73.67,13.37l-5,2,1.32,5.83,3.95,17.33,2.76,12.24L901,89c15.72-6.4,35.71-10.22,53.46-10.22,18.83,0,24.76,4.55,26.43,6.5,2.2,2.59,2.7,7.19,1.43,13.06-79.78.58-129,21.29-138.74,58.48a36.75,36.75,0,0,0,7.91,34c7.68,9,23.34,19.71,54.39,19.71,20.33,0,40.59-4.75,57.14-13.09,0,0-.13,9.39,15.41,9.39a9.08,9.08,0,0,1,3.53.41h32.4l.05-6.49c0-8.09,1.87-19.15,5.47-32.88l14.19-54.08c5.37-20.48,2.65-37.2-8.08-49.79m-55.38,82.32a20,20,0,0,1-3.29,6.2c-7.45,10-25.18,21.68-50.54,21.68-10.1,0-15.8-2.5-17.62-4.64s-1.05-6.51-.59-8.25c4.55-17.33,30.57-26.91,75.42-27.87ZM784.06,106.8c-19.94-5.75-24.21-8.82-25-10.13a5.23,5.23,0,0,1,.24-2.54c2-7.49,14-15,33.07-15,18.92,0,31,5.07,35.33,7.25l6.42,3.23L837.6,85,852,65.82l6.06-8.1-11.28-5.31c-13.47-6.32-32.52-9.93-52.3-9.93-44.79,0-81.15,19.37-88.44,47.12a31.06,31.06,0,0,0,4.57,25.85c8,11.78,23.33,20.62,46.92,26.94,18.35,5.12,22.42,8.8,23.3,10.13.78,1.14.24,3.61,0,4.62-2,7.78-13.5,16.83-39.06,16.83-16.63,0-33.35-4.8-41.85-9.27l-6.58-3.45-3.53,4.85-14.58,20-5.91,8.12,11.21,5.22c15.18,7.07,36.76,11.14,59.16,11.14,50.6,0,86.89-18.53,94.7-48.34,2.8-10.59,1.38-20.26-4.22-28.69-7.53-11.37-22.15-19.88-46-26.77" transform="translate(-0.22 -8.43)" style="fill: #fff"/>
        <path d="M207.68,67.27c-6.22-6-17.62-12.55-37.53-12-39.44,1.08-65.94,25.06-80.89,47,0,0-11.45,14.32-23.22,5.09-11.17-8.75-10.35-24.62.46-38.62,10-13,55.09-53.82,117.56-31.92A110.05,110.05,0,0,0,16.43,176c6.47,5.44,17.2,10.66,34.56,10.71,39.43.09,66.63-23.09,82.24-44.59,0,0,11.88-14,23.37-4.39,10.9,9.08,9.62,24.91-1.62,38.58-9.84,12-51.84,48-108.71,31.69A110,110,0,0,0,207.68,67.27" transform="translate(-0.22 -8.43)" style="fill: #fff"/>
      </g>
      <g>
        <path d="M241.78,246.58h22a25.1,25.1,0,0,1,7.2.88,16,16,0,0,1,4.83,2.29,10.76,10.76,0,0,1,2.95,3.22,14.41,14.41,0,0,1,1.49,3.64,17.73,17.73,0,0,1,.54,3.6c.05,1.17.07,2.2.07,3.06,0,.06,0,.52-.11,1.38a16.48,16.48,0,0,1-.69,3.18,20.79,20.79,0,0,1-1.8,4.06,14.91,14.91,0,0,1-3.45,4.06,18.05,18.05,0,0,1-5.63,3.1,24.83,24.83,0,0,1-8.38,1.23H244.39l-4.37,21h-9.57ZM246,272.47h14.48a12.82,12.82,0,0,0,5.32-1,8.53,8.53,0,0,0,3.3-2.49,9.46,9.46,0,0,0,1.68-3.41,14.52,14.52,0,0,0,.5-3.71,9.63,9.63,0,0,0-.34-2.46,6.44,6.44,0,0,0-1.31-2.45,6.82,6.82,0,0,0-2.75-1.87,12.67,12.67,0,0,0-4.72-.73h-12.4Z" transform="translate(-0.22 -8.43)" style="fill: #fff"/>
        <path d="M281.69,278.67a39.48,39.48,0,0,1,2.56-14.9A30.38,30.38,0,0,1,291,253.36a27.09,27.09,0,0,1,9.42-6.1,29.87,29.87,0,0,1,10.61-2,26.25,26.25,0,0,1,9.8,1.76,21.4,21.4,0,0,1,7.55,4.94,22.45,22.45,0,0,1,4.82,7.54,26.05,26.05,0,0,1,1.73,9.65,41,41,0,0,1-2.46,14.94,30,30,0,0,1-6.5,10.37,25.86,25.86,0,0,1-9.27,6.09,29.8,29.8,0,0,1-10.73,2,27.55,27.55,0,0,1-10.41-1.84,21.16,21.16,0,0,1-12.26-12.64A27.09,27.09,0,0,1,281.69,278.67Zm9.57-.31q0,7.67,3.91,12t11.1,4.36a15.36,15.36,0,0,0,8.31-2.22,19.59,19.59,0,0,0,6-5.82,26.45,26.45,0,0,0,3.6-8.12,35.33,35.33,0,0,0,1.19-9.11q0-7.67-3.71-12t-10.92-4.37a16.1,16.1,0,0,0-8.54,2.22,19.41,19.41,0,0,0-6.05,5.82,27.37,27.37,0,0,0-3.64,8.12A34.94,34.94,0,0,0,291.26,278.36Z" transform="translate(-0.22 -8.43)" style="fill: #fff"/>
        <path d="M345.71,283.19q-.3,6.36,3.14,9t9.42,2.6a19.65,19.65,0,0,0,4.1-.46,12.89,12.89,0,0,0,3.95-1.49,9.54,9.54,0,0,0,2.94-2.68,6.77,6.77,0,0,0,1.19-4.1,6.36,6.36,0,0,0-1.11-3.83,9.06,9.06,0,0,0-2.91-2.56,20,20,0,0,0-4.17-1.76q-2.38-.74-4.9-1.42c-1.23-.31-2.69-.73-4.37-1.27a19.39,19.39,0,0,1-4.9-2.37,13.8,13.8,0,0,1-4-4.1,11.54,11.54,0,0,1-1.65-6.43,16.76,16.76,0,0,1,1.38-6.82,15.24,15.24,0,0,1,4-5.4,18.7,18.7,0,0,1,6.4-3.52,27.22,27.22,0,0,1,8.61-1.26,33.47,33.47,0,0,1,8,.92,17.57,17.57,0,0,1,6.5,3,13.83,13.83,0,0,1,4.29,5.4,17.84,17.84,0,0,1,1.38,8.16h-9.19c-.05-3.42-1-5.89-2.83-7.39s-4.62-2.26-8.35-2.26a21.56,21.56,0,0,0-2.76.23,11.57,11.57,0,0,0-3.52,1.07,8.9,8.9,0,0,0-3.06,2.41,6.58,6.58,0,0,0-1.31,4.33,5.56,5.56,0,0,0,.92,3.29,7.81,7.81,0,0,0,2.49,2.22,16.2,16.2,0,0,0,3.64,1.54c1.38.41,2.83.79,4.37,1.14q2.91.78,5.85,1.69a20.16,20.16,0,0,1,5.37,2.56,12.72,12.72,0,0,1,3.9,4.33,14.21,14.21,0,0,1,1.5,7,17.28,17.28,0,0,1-1.23,6.36,15.37,15.37,0,0,1-3.94,5.67,20.72,20.72,0,0,1-7.05,4.1,31.24,31.24,0,0,1-10.53,1.57,31.86,31.86,0,0,1-8.73-1.12,17.15,17.15,0,0,1-6.63-3.44,14.74,14.74,0,0,1-4.13-6,22.57,22.57,0,0,1-1.27-8.81Z" transform="translate(-0.22 -8.43)" style="fill: #fff"/>
      </g>
    </g>
  </g>
</svg>
