<?xml version="1.0" encoding="UTF-8"?>
<svg id="Capa_1" data-name="Capa 1" xmlns="http://www.w3.org/2000/svg" viewBox="0 0 151.02 151">
  <circle cx="75.5" cy="75.5" r="75.5" style="fill: #1031a3;"/>
  <path d="M60.24,118.98c36.88,0,57.04-30.55,57.04-57.04,0-.87-.02-1.73-.06-2.59,3.91-2.83,7.32-6.36,10-10.38-3.59,1.6-7.46,2.67-11.51,3.16,4.14-2.48,7.32-6.41,8.82-11.09-3.87,2.3-8.16,3.97-12.73,4.87-3.66-3.9-8.87-6.33-14.63-6.33-11.07,0-20.05,8.98-20.05,20.05,0,1.57,.18,3.1,.52,4.57-16.66-.84-31.44-8.82-41.32-20.95-1.72,2.96-2.72,6.4-2.72,10.08,0,6.96,3.54,13.1,8.92,16.69-3.29-.1-6.38-1-9.08-2.51,0,.08,0,.17,0,.26,0,9.71,6.91,17.82,16.08,19.65-1.68,.46-3.46,.71-5.28,.71-1.29,0-2.55-.13-3.77-.36,2.55,7.96,9.95,13.76,18.73,13.92-6.86,5.38-15.51,8.58-24.9,8.58-1.62,0-3.21-.09-4.78-.28,8.87,5.69,19.41,9,30.73,9" style="fill: #fff;"/>
</svg>